<?xml version="1.0" encoding="utf-8"?>
<!-- Generator: Adobe Illustrator 19.0.1, SVG Export Plug-In . SVG Version: 6.00 Build 0)  -->
<svg version="1.1" id="Layer_1" xmlns="http://www.w3.org/2000/svg" xmlns:xlink="http://www.w3.org/1999/xlink" x="0px" y="0px"
	 viewBox="0 0 512 512" style="enable-background:new 0 0 512 512;" xml:space="preserve">
<path d="M237.9,134.8c-19.7-1-51.9-83.7-64.5-98.8l-25.7,59c8.1,5,32.3,61,32.3,67.5c0.5,81.7-88.7,145.2-75.1,202.1
	c29.7,12.1,66,18.6,96.8,22.2c-47.9-50.9-32.3-132.1-7.6-199.1c-11.6,70.1-27.2,147.2,16.1,199.6c12.6,1.5,24.2,2.5,33.3,3
	c22.7,2,26.2,2,28.7,5c0.5,0.5,8.6,14.6,3.5,23.2c-2,6-9.1,14.6-18.6,23.2c11.6,0,28.2-2,51.4-9.1l6.6,25.2c0,0,13.1-24.7,26.7-37.8
	c19.7,11.1,31.8,21.2,31.8,21.2s-5-13.6-8.1-33.8c24.2-3,43.3,2,43.3,2l-16.1-22.2c48.4-42.3,34.8-64.5,34.8-64.5s15.6-2,22.7-21.7
	C503,145.4,352.3,142.9,237.9,134.8z M212.7,165.5c17.1,101.8,11.1,204.1,129.5,227.8C216.7,383.3,209.7,264.8,212.7,165.5z
	 M364.9,382.8c44.9-120-51.9-173.9-145.2-225.8C320,200.3,425.9,262.3,364.9,382.8z M429.4,297.6C441.5,192.8,339.2,180.2,257,158
	C345.8,167,456.1,187.7,429.4,297.6z M52.4,330.9c29.7,73.6,103.3,98.3,205.1,77.1c-93.7,36.3-176.4,17.6-208.2-79.1
	C36.8,430.7,98.8,474,161.8,474c43.3,0,87.7-20.7,108.9-57.5c4-6.6-3.5-17.1-3.5-17.1C269.1,392.9,92.7,399.4,52.4,330.9z"/>
</svg>
