<?xml version="1.0" encoding="utf-8"?>
<!-- Generator: Adobe Illustrator 19.0.1, SVG Export Plug-In . SVG Version: 6.00 Build 0)  -->
<svg version="1.1" id="Layer_1" xmlns="http://www.w3.org/2000/svg" xmlns:xlink="http://www.w3.org/1999/xlink" x="0px" y="0px"
	 viewBox="0 0 512 512" style="enable-background:new 0 0 512 512;" xml:space="preserve">
<g>
	<path d="M60.1,79.8c12.3-3.3,25,4,28.4,16.5l89.8,338.4c3.3,12.5-4,25.3-16.3,28.6c-12.3,3.3-25-4.1-28.4-16.5L43.8,108.4
		C40.5,95.9,47.8,83.1,60.1,79.8z"/>
	<path d="M109.4,106.6c6-10.4,62-96.6,158.1-35.9c96.3,60.7,159,104.1,200.5,31.5c0,0-10.4,58.8-28.2,90
		c-17.8,31.2-73.6,73.8-142.7,55.7c-63.9-16.8-111,9.1-130.1,66.9C167,314.6,114,122.8,109.4,106.6z"/>
</g>
</svg>
