<?xml version="1.0" encoding="utf-8"?>
<!-- Generator: Adobe Illustrator 19.0.1, SVG Export Plug-In . SVG Version: 6.00 Build 0)  -->
<svg version="1.1" id="Layer_1" xmlns="http://www.w3.org/2000/svg" xmlns:xlink="http://www.w3.org/1999/xlink" x="0px" y="0px"
	 viewBox="0 0 512 512" style="enable-background:new 0 0 512 512;" xml:space="preserve">
<g>
	<path d="M449,97.9c-8.5-8.3-22.2-8.1-30.5,0.4c-8.3,8.5-8.1,22.2,0.4,30.5c0.1,0.1,7.1,8.3,6.5,23.9c-0.3,6.9-2.4,17.1-9,30.3
		c6.9,3.8,13.3,8.4,18.9,13.9c5.1,5,9.5,10.6,13.2,16.8c12.2-20.3,19.1-40.1,19.9-59.2C469.9,119.4,451.1,100,449,97.9z"/>
	<path d="M367.5,199.5c-28.7,0-59.1,14.3-75.8,37.5C206.5,355.8,120.4,361.9,75.1,361.9c-5.2,0-9.8-0.1-13.9-0.1
		c-15.8,0-22.5,1.2-16.5,13c14.1,27.9,78.6,62.1,157.8,62.1c63.8,0,137.1-22.2,201.4-87.7c32.4-33,44.4-99.3,11.3-131.7
		C402.5,205,385.3,199.5,367.5,199.5z"/>
	<path d="M97.8,304.9c-1.6-21,2.3-68.6,64.8-95.4c0,0-23.2,56.1,8.2,84.5c22.8-17.8,38.9-46.9,40.5-75
		c4.7-81.1-51.9-123.8-88.7-142.8c-3.8-2-8.4-1.3-11.4,1.7c-3.1,2.9-3.9,7.5-2.1,11.3c14.2,30.2,23.8,84.1-37,146.9
		C53.6,255.3,68.7,290.5,97.8,304.9z"/>
</g>
</svg>
