<?xml version="1.0" encoding="utf-8"?>
<!-- Generator: Adobe Illustrator 19.0.1, SVG Export Plug-In . SVG Version: 6.00 Build 0)  -->
<svg version="1.1" id="Layer_1" xmlns="http://www.w3.org/2000/svg" xmlns:xlink="http://www.w3.org/1999/xlink" x="0px" y="0px"
	 viewBox="0 0 512 512" style="enable-background:new 0 0 512 512;" xml:space="preserve">
<g>
	<path d="M456.3,206.3l-0.3-0.1l-193.4-82.9c-0.2-0.1-0.3-0.1-0.5-0.1c-1-0.3-2-0.5-3-0.4c-0.2,0-0.3,0-0.5,0
		c-0.5,0.1-1.1,0-1.6,0.2l-59.8,21l-59.7-85l-18.1,14.2l57.8,77.9l-13.8,4.9L91,65.7L73.9,81.1l69.5,81.9l-86,30.3l-3.2,1.1
		c-3,1.1-5,3.9-5,7.1v159.1c0,1.1,0.3,2.2,0.8,3.2c0.8,1.3,1.9,2.3,3.4,2.9l3.2,1.3l189.3,81.1c0.2,0.2,0.3,0.4,0.5,0.5
		c1.3,0.9,2.8,1.4,4.3,1.4c0.8,0,1.7-0.1,2.5-0.4l201.9-71.1l1.1-0.4c0.7-0.2,1.3-0.6,1.8-1c0.2-0.1,0.3-0.3,0.5-0.4
		c0.3-0.2,0.5-0.5,0.8-0.8c1.1-1.3,1.7-2.9,1.7-4.7V213.2C460.8,210.2,459,207.5,456.3,206.3z M78.1,201.9l75.6-26.6l78.7,92.8
		L78.1,201.9z M252.1,266l-78.6-97.8l13.2-4.6l65.4,88.2V266z M252.1,221.9l-45.8-65.2l45.8-16.1V221.9z M267.1,141.6l165.4,70.9
		l-150,52.8l-15.4-22V141.6z"/>
</g>
</svg>
