<?xml version="1.0" encoding="utf-8"?>
<!-- Generator: Adobe Illustrator 19.0.1, SVG Export Plug-In . SVG Version: 6.00 Build 0)  -->
<svg version="1.1" id="Layer_1" xmlns="http://www.w3.org/2000/svg" xmlns:xlink="http://www.w3.org/1999/xlink" x="0px" y="0px"
	 viewBox="0 0 512 512" style="enable-background:new 0 0 512 512;" xml:space="preserve">
<path d="M97.5,356.2v26.5c0,4.9,4,8.8,8.8,8.8h53c4.9,0,8.8-4,8.8-8.8v-26.5H97.5z"/>
<path d="M53.3,285.5c-4.9,0-8.8,4-8.8,8.8v35.3c0,4.9,4,8.8,8.8,8.8h406.3c4.9,0,8.8-4,8.8-8.8v-35.3c0-4.9-3.9-8.8-8.8-8.8"/>
<path d="M344.9,356.2v26.5c0,4.9,4,8.8,8.8,8.8h53c4.9,0,8.8-4,8.8-8.8v-26.5H344.9z"/>
<g>
	<path d="M429.2,281.5c-1.7-12.1-10.3-27.4-41.7-32l-4.7-0.7l4.4,1.9c3.2,1.4,6.1,3.2,8.6,5.4l-1.8,0.6c-7.4-6.6-16.3-8.1-19.8-8.4
		c-1.7,0-2.7,0-2.8,0c-7.5,0.7-14.7,2.8-21.3,6.3c-7.1-6.7-17.8-11.1-31.9-13.1l-4.7-0.7l4.4,1.9c3.2,1.4,6.1,3.2,8.6,5.4l-1.8,0.6
		c-7.4-6.6-16.3-8.1-19.8-8.4c-1.7,0-2.7,0-2.8,0c-7.9,0.7-15.3,3-22.1,6.6l-2.5,1.4l2.9-0.1c0.4,0,0.7,0,1.1,0
		c5.4,0,10.9,1.7,16.2,5.1l-0.7,0.8c-5.1-3.3-10.3-4.9-15.4-4.9c-2.4,0-4.7,0.4-6.9,1.1l-0.1,0.1c-5.9,4.1-11.1,9.2-15.4,15.3
		l-1,1.4l1.7-0.4c0.7-0.1,1.4-0.3,2-0.3c0.9-0.1,1.7-0.2,2.6-0.2c5.1,0,10.3,1.7,15.4,5.1l-0.7,0.8c-4.8-3.2-9.8-4.9-14.6-4.9
		c-3.2,0-5.6,0.7-7.2,1.3l-0.2,0.1l-0.1,0.2c-3.8,6.1-6.6,12.6-8,18.9l-0.3,1.2l1.1-0.4c1.3-0.5,2.7-0.8,4.1-1c1.6-0.2,3.3-0.2,5,0
		c4.2,0.5,8.5,2.1,12.6,4.9l-0.7,0.8c-4.7-3.2-9.4-4.8-14.1-4.8h-0.2c-3.5,0-6.2,0.9-7.8,1.7l-0.3,0.1l-0.1,0.3
		c-1.5,9.3,0.7,15.7,5.8,16.7c1.3,0.3,2.5,0.4,3.5,0.4c0.4,0,0.6,0,0.9,0l0.2,0c2.1-0.1,4-0.5,5.8-1.2c6.5,2.3,14.8,3.5,24,3.5
		c6.3,0,12.9-0.6,19.6-1.6c3-0.5,6.2-1.1,9.4-1.9c0.5,5.1,2.7,8.2,6.1,8.9c1.3,0.3,2.5,0.4,3.5,0.4c0.4,0,0.6,0,0.9,0h0.2
		c2.1-0.1,4-0.5,5.8-1.2c6.5,2.3,14.8,3.5,24,3.5c6.3,0,12.9-0.6,19.6-1.6c29.3-4.8,51.7-19,50.1-31.9c0.3-0.3,0.5-0.7,0.7-0.9
		c0.5-0.8,0.8-1.4,0.8-1.5l0.1-0.2L429.2,281.5z M336.8,299.1c-0.6-0.3-1.1-0.6-1.7-0.8l-0.2,0c-2.9-1.2-5.8-1.9-8.7-1.9h-0.2
		c-3.5,0-6.2,0.9-7.8,1.7l-0.3,0.1l-0.1,0.3c-0.3,2-0.5,3.9-0.4,5.7c-3.2,0.8-6.4,1.4-9.6,2c-6.5,1.1-13,1.6-19.3,1.6
		c-8.1,0-15.5-0.9-21.5-2.7c5.1-3.4,7-8.9,7.3-9.7c14.9-23.1,37-25.6,45.9-25.6c3.6,0,7.1,0.4,10.5,1.2c-0.7,0.9-1.5,1.9-2.2,2.8
		l-1,1.4l1.7-0.4c0.7-0.1,1.4-0.3,2.1-0.4c3.3-0.4,6.9,0,10.4,1.1c2.5,0.9,5.1,2.1,7.6,3.8l-0.7,0.8c-4.8-3.2-9.8-4.9-14.6-4.9
		c-3.2,0-5.6,0.7-7.2,1.3l-0.2,0.1l-0.1,0.2c-3.8,6.1-6.6,12.6-8,18.9l-0.3,1.2l1.1-0.4c1.3-0.5,2.7-0.8,4.1-1c1.6-0.2,3.3-0.2,5,0
		c2.7,0.3,5.6,1.2,8.4,2.6l0.4,0.2c0.4,0.2,0.8,0.4,1.2,0.6c1,0.5,1.8,1.1,2.6,1.6l-0.7,0.8c-1-0.7-1.9-1.2-2.9-1.8l0.1,0
		L336.8,299.1z M357.9,315.7c-8.1,0-15.5-0.9-21.5-2.7c5.1-3.4,7-8.9,7.3-9.7c14.9-23.1,37-25.6,45.9-25.6c8.8,0,17.2,2.3,21.8,6.1
		c4.5,3.6,8.7,4.8,12.2,3.4c0.7-0.3,1.3-0.6,1.9-1c-0.7,11.2-22.1,23.6-48.4,27.9C370.6,315.2,364.1,315.7,357.9,315.7z
		 M352.5,257.4c-0.3-0.3-0.6-0.7-0.9-1c5.1,0.2,10.3,1.9,15.4,5.1l-0.7,0.8C361.7,259.3,357.1,257.7,352.5,257.4z"/>
</g>
<g>
	<g>
		<path d="M109.3,262.5c0-9.9,15-18,33.6-18c0.9,0,1.9,0,2.8,0.1V234c0-9.9-15-18-33.6-18c-18.5,0-33.6,8.1-33.6,18v35.3
			c0,9.4,13.5,17.2,30.8,17.9L109.3,262.5L109.3,262.5z M100.3,245.2c-2.1-0.4-3.6-1.1-4.6-1.9c-2.1-0.1-4.1-0.5-5.7-1.2
			c-1.6-0.7-2.5-1.7-2.6-2.6c-1.9-0.4-3.4-1.2-4.3-2.1c-0.9-0.9-0.9-1.9-0.2-2.9c-1.3-0.7-2.1-1.7-2.1-2.7c0-1,0.8-2,2.2-2.7
			c-0.6-0.9-0.6-1.9,0.2-2.9c0.9-0.9,2.4-1.7,4.2-2.1c0.2-0.9,1-1.9,2.6-2.6c1.6-0.7,3.6-1.1,5.7-1.2c1-0.9,2.5-1.6,4.6-2
			c2.1-0.4,4.3-0.4,6.2-0.1c1.6-0.6,3.6-1,5.9-1c2.3,0,4.3,0.4,5.9,1c2-0.3,4.2-0.3,6.3,0.1c2.1,0.4,3.6,1.1,4.6,1.9
			c2.1,0.1,4.1,0.5,5.7,1.2c1.6,0.7,2.5,1.7,2.6,2.6c1.9,0.4,3.4,1.2,4.3,2.1c0.8,0.9,0.9,2,0.2,2.9c1.3,0.7,2.1,1.7,2.1,2.7
			c0,1-0.8,2-2.2,2.7c0.7,0.9,0.6,1.9-0.2,2.9c-0.8,0.9-2.4,1.6-4.2,2.1c-0.1,2.1-4.3,3.2-4.3,3.2c-1.2,0.4-2.6,0.6-4.1,0.6
			c-1.9,2-6.7,2.2-6.7,2.2c-1.4,0.1-2.9,0.1-4.3-0.1c-1.6,0.6-3.6,1-5.9,1c-2.3,0-4.3-0.4-5.9-1
			C104.7,245.6,102.4,245.6,100.3,245.2z"/>
	</g>
</g>
<g>
	<path d="M298.5,123.5l-54.8,132.2v-2.3c0-9.9-15-18-33.6-18c-4.8,0-9.3,0.5-13.4,1.5l53.6-114.1l0.4-0.9l-11.9-7.7l-51.5,125.9
		c-6.6,3.3-10.8,8-10.8,13.2v3.9c1.2,1.9,1.9,3.9,1.9,5.9v31.4c4.6,7,17,12.1,31.7,12.1c18.6,0,33.6-8.1,33.6-18v-19.3l67.5-140.5
		l0.5-1L298.5,123.5z M240.1,253.8c0.6,0.9,0.6,1.9-0.2,2.9c-0.9,0.9-2.4,1.6-4.2,2.1c-0.1,2.1-4.3,3.2-4.3,3.2
		c-1.2,0.4-2.6,0.6-4.1,0.6c-1.9,2-6.7,2.2-6.7,2.2c-1.4,0.1-2.9,0-4.2-0.1c-1.6,0.6-3.6,1-5.9,1c-2.3,0-4.3-0.4-5.9-1
		c-2,0.3-4.2,0.3-6.3-0.1c-2.1-0.4-3.6-1.1-4.6-1.9c-2.1-0.1-4.1-0.5-5.7-1.2c-1.6-0.7-2.5-1.7-2.6-2.6c-1.9-0.4-3.4-1.2-4.3-2.1
		c-0.8-0.9-0.9-1.9-0.2-2.9c-1.3-0.7-2.1-1.7-2.1-2.7c0-1,0.8-2,2.2-2.7c-0.7-0.9-0.6-1.9,0.2-2.9c0.9-0.9,2.4-1.7,4.2-2.1
		c0.2-0.9,1-1.9,2.6-2.6c1.6-0.7,3.6-1.1,5.7-1.2c1-0.9,2.5-1.6,4.6-2c2.1-0.4,4.3-0.4,6.2-0.1c1.6-0.6,3.6-1,5.9-1
		c2.3,0,4.3,0.4,5.9,1c2-0.3,4.2-0.3,6.3,0.1c2.1,0.4,3.6,1.1,4.6,1.9c2.1,0.1,4.1,0.5,5.7,1.2c1.6,0.7,2.5,1.7,2.6,2.6
		c1.9,0.4,3.4,1.2,4.3,2.1c0.8,0.9,0.9,2,0.2,2.9c1.3,0.7,2.1,1.7,2.1,2.7C242.3,252.1,241.5,253.1,240.1,253.8z"/>
</g>
<g>
	<g>
		<path d="M143.9,245.4c-18.5,0-33.6,8.1-33.6,18v35.3c0,9.9,15,18,33.6,18s33.6-8.1,33.6-18v-35.3
			C177.5,253.5,162.5,245.4,143.9,245.4z M173.9,263.9c0.7,0.9,0.6,1.9-0.2,2.9c-0.9,0.9-2.4,1.6-4.2,2.1c-0.1,2.1-4.3,3.2-4.3,3.2
			c-1.2,0.4-2.6,0.6-4.1,0.6c-1.9,2-6.7,2.2-6.7,2.2c-1.4,0.1-2.9,0-4.3-0.1c-1.6,0.6-3.6,1-5.9,1c-2.3,0-4.3-0.4-5.9-1
			c-2,0.3-4.2,0.3-6.3-0.1c-2.1-0.4-3.6-1.1-4.6-1.9c-2.1-0.1-4.1-0.5-5.7-1.2c-1.6-0.7-2.5-1.7-2.6-2.6c-1.9-0.4-3.4-1.2-4.3-2.1
			c-0.9-0.9-0.9-1.9-0.2-2.9c-1.3-0.7-2.1-1.7-2.1-2.7c0-1,0.8-2,2.2-2.7c-0.7-0.9-0.6-1.9,0.2-2.9c0.9-0.9,2.4-1.7,4.2-2.1
			c0.2-0.9,1-1.9,2.6-2.6c1.6-0.7,3.6-1.1,5.7-1.2c1-0.9,2.5-1.6,4.6-2c2.1-0.4,4.3-0.4,6.2-0.1c1.6-0.6,3.6-1,5.9-1
			c2.3,0,4.3,0.4,5.9,1c2-0.3,4.2-0.3,6.3,0.1c2.1,0.4,3.6,1.1,4.6,1.9c2.1,0.1,4.1,0.5,5.7,1.2c1.6,0.7,2.5,1.7,2.6,2.6
			c1.9,0.4,3.4,1.2,4.3,2.1c0.8,0.9,0.9,2,0.2,2.9c1.3,0.7,2.1,1.7,2.1,2.7C176.1,262.3,175.3,263.2,173.9,263.9z"/>
	</g>
	<g>
		<path d="M153.7,253.4c-2.8-0.5-6-0.9-9.3-0.9c-11.8,0-21.3,3.8-21.3,8.5c0,4.1,7.1,7.4,16.6,8.3c1.5,0.1,3.1,0.2,4.7,0.2
			c11.8,0,21.3-3.8,21.3-8.5C165.7,257.7,160.8,254.8,153.7,253.4z"/>
	</g>
</g>
<g>
	<path d="M121.6,223.9c-2.8-0.6-6-0.9-9.3-0.9c-11.8,0-21.3,3.8-21.3,8.5c0,4.1,7.1,7.4,16.6,8.3c1.5,0.1,3.1,0.2,4.7,0.2
		c11.8,0,21.4-3.8,21.4-8.5C133.6,228.2,128.8,225.3,121.6,223.9z"/>
</g>
<g>
	<path d="M219.9,242.6c-2.8-0.5-6-0.9-9.3-0.9c-11.8,0-21.3,3.8-21.3,8.5c0,4.1,7.1,7.4,16.6,8.3c1.5,0.1,3.1,0.2,4.7,0.2
		c11.8,0,21.3-3.8,21.3-8.5C231.9,246.9,227,244,219.9,242.6z"/>
</g>
</svg>
