<?xml version="1.0" encoding="utf-8"?>
<!-- Generator: Adobe Illustrator 19.0.1, SVG Export Plug-In . SVG Version: 6.00 Build 0)  -->
<svg version="1.1" id="Layer_1" xmlns="http://www.w3.org/2000/svg" xmlns:xlink="http://www.w3.org/1999/xlink" x="0px" y="0px"
	 viewBox="0 0 512 512" style="enable-background:new 0 0 512 512;" xml:space="preserve">
<g>
	<g>
		<path d="M445.9,297.9c0.4,1.7,0.6,3.5,0.6,5.3c0,37.3-85.8,67.5-191.5,67.5c-105.8,0-191.5-30.2-191.5-67.5c0-1.8,0.3-3.6,0.7-5.3
			c-13.4,8.8-20.9,18.8-20.9,29.2c0,37.3,94.8,67.5,211.8,67.5c117,0,211.8-30.2,211.8-67.5C466.8,316.6,459.3,306.7,445.9,297.9z"
			/>
	</g>
	<path d="M419.7,247.9c-23.9-54.6-76.5-94.7-139.7-103.2c0.7-2.1,1.1-4.2,1.1-6.5c0-12.2-10.3-22.2-22.9-22.2
		c-12.7,0-22.9,9.9-22.9,22.2c0,2,0.4,4,0.9,5.8c-66,6.6-121.3,47.6-145.9,103.9c-8.9,20.3-13.8,42.6-13.8,66c0,0.2,0,0.4,0,0.6
		c25.8,26.3,95.9,45.2,178.5,45.2c82.6,0,152.7-18.9,178.5-45.2c0-0.2,0-0.4,0-0.6C433.6,290.5,428.6,268.2,419.7,247.9z
		 M258.2,123.8c5.5,0,10,4.3,10,9.7c0,5.3-4.4,9.6-9.9,9.6c-0.1,0-0.2,0-0.3,0c-5.4-0.1-9.8-4.4-9.8-9.6
		C248.2,128.1,252.7,123.8,258.2,123.8z"/>
</g>
</svg>
