<?xml version="1.0" encoding="utf-8"?>
<!-- Generator: Adobe Illustrator 19.0.1, SVG Export Plug-In . SVG Version: 6.00 Build 0)  -->
<svg version="1.1" id="Layer_1" xmlns="http://www.w3.org/2000/svg" xmlns:xlink="http://www.w3.org/1999/xlink" x="0px" y="0px"
	 viewBox="0 0 512 512" style="enable-background:new 0 0 512 512;" xml:space="preserve">
<g>
	<path d="M252.1,268.6c-76.3,0-138.1,13.3-138.1,29.8c0,66.2,42.9,121.9,101.3,138.6c11.7,3.3,60.9,3.5,72.2,0.4
		c4.6-1.3,9.1-2.8,13.4-4.5c52.1-20.5,89.2-73,89.2-134.5C390.2,281.9,328.4,268.6,252.1,268.6z M252.1,320.2
		c-71.6,0-129.7-9.3-129.7-20.8c0-11.5,58-20.8,129.7-20.8s129.7,9.3,129.7,20.8C381.8,310.9,323.7,320.2,252.1,320.2z"/>
	<path d="M108.1,298.4c0-15.9,29.9-25.3,65-30.4c0.3-6.1,0.4-12.5,0.4-19.2c0-10.5-24.5-19-54.8-19s-54.8,8.5-54.8,19
		c0,42.2,6.5,75.4,36.1,88.2c2.3,1,7.6,1.6,13.6,1.9C110,325.9,108.1,312.3,108.1,298.4z M67.3,249.5c0-7.3,23-13.3,51.5-13.3
		s51.5,6,51.5,13.3c0,7.3-23,13.3-51.5,13.3S67.3,256.8,67.3,249.5z"/>
	<path d="M155.4,214.9c7.3,10.8,21.1,19.8,27.2,23.4c-1.2,6.9-2.1,13.6-2.5,19.5c0,3.2,0.3,6.3,0.7,9.1c25-3.2,51.6-4.3,71.3-4.3
		c35.1,0,92.1,3.7,122.8,15.8c1.9-5.7,3.1-12.6,3.2-20.6c-2-30.9-17.4-80.8-21.5-93.8l0,0c-0.6-2.7-1-4.3-1.4-5.4
		c0-0.1-0.1-0.2-0.1-0.3c-0.4-1-0.6-1.3-0.6-1.3l0,0c-1-1.8-2.8-3.5-5.2-5.1c4.9-10,7.6-21.3,7.6-33.2C357,77,323,43,281.1,43
		s-75.9,34-75.9,75.9c0,11.2,2.4,21.8,6.8,31.3c-4.9,2.6-8.1,5.5-9,8.6c0,0,0,0,0,0c-0.3,0.3-1.2,4.7-2.2,7.9h0
		c-2.3,7.4-6.4,20.8-10.3,36.1c-5.2-3-18.9-11-21.3-14.2c-3-4-11.1-24-11.1-24c0-1.3-4.7-2.3-10.5-2.3s-10.5,1-10.5,2.3
		c0,0.1,0,0.2,0.1,0.2C137.8,167.8,146.3,201.4,155.4,214.9z M281.1,52.8c36.5,0,66.1,29.6,66.1,66.1c0,10.3-2.4,20.1-6.6,28.8
		c-13.1-5.1-33.8-8.6-57.3-9c1.4-1.5,2.2-3.5,2.2-5.6c0-4.6-3.8-8.4-8.4-8.4s-8.4,3.8-8.4,8.4c0,2.2,0.9,4.2,2.3,5.7
		c-20,0.6-37.6,3.4-50,7.6c-3.9-8.4-6-17.7-6-27.6C215,82.4,244.6,52.8,281.1,52.8z"/>
	<polygon points="419,382.1 416.6,381.7 288.6,454.8 288.5,455.6 286.8,465.8 296.6,467.4 298.4,456.4 298.5,456.4 298.5,456.4 	"/>
	<polygon points="448.1,381.1 445.7,380.7 317.7,453.8 317.6,454.7 315.9,464.8 325.7,466.5 327.5,455.5 327.6,455.5 327.6,455.5 	
		"/>
</g>
</svg>
