<?xml version="1.0" encoding="utf-8"?>
<!-- Generator: Adobe Illustrator 19.0.1, SVG Export Plug-In . SVG Version: 6.00 Build 0)  -->
<svg version="1.1" id="Layer_1" xmlns="http://www.w3.org/2000/svg" xmlns:xlink="http://www.w3.org/1999/xlink" x="0px" y="0px"
	 viewBox="0 0 512 512" style="enable-background:new 0 0 512 512;" xml:space="preserve">
<g>
	<path d="M419.9,215.2c0.5-0.5,0.9-1.4,1.4-1.9c2.3-2.8,5.6-7,6.1-12.2c0.5-5.2-1.9-8.9-3.8-12.7c-0.5-1.4-1.9-3.3-1.9-3.8
		c0-0.9,0.5-2.8,0.5-4.2c0.9-3.8,1.9-9.4-0.9-14.1c-3.3-5.6-9.4-7-13.6-8c-1.4-0.5-2.8-0.5-3.8-0.9c0,0-0.5-0.5-0.9-0.5
		c1.4-1.9,2.8-3.8,3.8-6.6c3.3-8.4,0.9-17.8-1.4-24.9c-0.9-3.8-2.3-8-1.9-10.3c0.5-3.3,1.4-7,2.3-10.8c2.8-9.4,6.1-20.6-2.3-28.6
		c-6.1-6.1-14.1-2.3-19.7,0.5c-1.9,0.9-5.2,2.3-6.6,2.8c-0.9-0.5-2.8-1.9-4.2-2.8c-4.7-3.3-10.8-8.4-17.8-6.6
		c-6.6,1.4-9.4,7.5-12.2,12.7c-0.9,1.4-1.9,3.8-2.8,4.7c-1.4-0.5-3.8-1.4-5.2-1.9c-5.2-2.3-11.3-4.7-16.9-1.9
		c-7,3.3-8.9,10.8-10.8,16.4c-0.5,1.4-0.9,2.8-1.4,3.8c-2.3,0.9-5.6,1.4-8.9,1.4c-3.8,0.5-8,0.9-11.7,1.9c-7-6.1-15-9.4-23.9-8.9
		c-12.2,0.5-24.9,7.5-36.1,20.2c-5.6-2.8-11.7-3.8-17.8-5.2c-5.2-0.9-10.3-1.9-13.1-3.8c-1.4-0.9-3.3-4.7-4.7-7.5
		c-2.8-6.1-6.6-12.7-13.1-15.5c-6.6-2.8-13.6-0.9-20.2,0.9c-3.3,0.9-7,1.9-8.9,1.4c-0.9-0.9-2.8-3.3-4.2-4.7
		c-4.2-4.7-8.9-10.8-16.4-12.2c-11.7-1.9-18.8,8-22.5,13.6c-0.9,0.9-1.4,1.9-1.9,2.8c-1.4,1.4-2.8,2.8-4.2,4.7
		c-6.6,7-15.5,16.9-14.5,30.5c0.5,8.4,5.2,16.4,9.4,23c2.3,3.8,5.2,8.4,5.2,10.3c0,2.3-1.9,7.5-3.8,11.7c-3.8,8.9-8,20.2-6.6,31
		c0.9,6.1,3.3,11.7,7,16.4h325.2V215.2z M404.4,173.5c0.9,0.5,2.3,0.5,3.3,0.9c0,0.9-0.5,2.3-0.5,3.3c-0.5,2.8-1.4,6.1-0.9,9.4
		c0.5,3.8,1.9,6.6,3.8,9.4c0.5,1.4,1.9,3.3,1.9,3.8c0,0.9-1.9,2.8-2.8,3.8c-1.9,2.3-3.8,5.2-4.7,8.4c-0.5,0.5-0.9,1.4-0.9,2.8h-33.8
		c2.3-1.9,4.7-4.2,6.6-7c4.2-6.1,4.2-13.6,4.2-20.6c0-5.2,0-10.3,1.9-13.1c1.4-2.3,5.2-5.2,8.9-7.5c0.5,0.5,0.9,0.5,1.4,0.9
		c1.9,1.4,3.8,2.8,6.1,3.8C400.1,172.5,402.5,173,404.4,173.5z M299.3,120c5.6-0.5,11.3-1.4,16.4-4.2c4.2-2.8,5.6-7.5,7.5-12.2
		c0.5-1.9,1.4-5.2,2.3-6.1c1.4,0.5,3.3,0.9,4.7,1.9c5.2,2.3,10.8,4.7,16.9,2.3c5.6-1.9,8.4-7.5,10.8-12.7c0.5-1.4,1.4-2.8,2.3-4.2
		c1.4,0.9,3.3,2.3,4.2,3.3c3.8,3.3,8,6.1,13.1,6.1c4.7,0,9.4-2.3,13.6-4.2c0.9-0.5,1.9-0.9,2.8-1.4c0,2.8-1.4,7.5-2.3,10.8
		c-1.4,4.2-2.3,8.9-2.8,13.6c-0.5,5.6,0.9,10.8,2.8,16.4c1.4,5.6,3.3,11.3,1.9,15c-0.5,1.4-2.3,3.3-4.7,4.7c-0.5,0-0.9,0-0.9,0
		c-3.3,0-6.1,2.8-7,5.6c-4.2,3.3-8.9,6.6-11.7,11.7c-3.3,6.6-3.8,14.1-3.8,20.6c0,4.7,0,9.9-1.4,12.2c-2.8,4.2-8.4,6.6-14.1,8.9
		c-4.7,1.9-8.9,3.8-12.2,6.6h-37.5c7-9.4,16-23.5,27.2-41.3c8-12.2,16-25.3,18.8-28.2c2.8-3.3,2.3-8-0.5-10.8
		c-3.3-2.8-8-2.3-10.8,0.5c-3.3,3.8-9.9,14.1-20.2,30.5c-10.8,16.9-28.6,45-33.8,48.3c-0.5,0.5-0.9,0.9-1.4,0.9H257
		c2.3-4.2,4.2-8.9,4.7-13.6c0.5-5.6-1.4-11.3-3.3-16.9c-1.4-4.7-3.3-9.9-2.3-12.2c0.9-2.3,5.6-5.2,9.4-7.5
		c5.2-2.8,10.8-6.6,14.5-11.7c3.8-5.6,4.2-12.2,4.7-18.3c0.5-4.7,0.9-9.9,2.8-11.3l0,0c0.9-0.5,1.9-0.9,2.8-1.4
		C292.2,120.5,295.5,120.5,299.3,120z M215.3,193.7c-1.4-4.2-5.6-6.6-9.9-5.2c-13.6,4.2-24.9,13.6-34.7,22.1
		c-1.9,1.4-3.8,3.3-5.6,4.7h-24.4c2.8-8.9,14.5-20.2,31-27.7c22.5-10.8,52.6-15,69,0.5c0.5,0.5,0.9,0.9,1.9,1.4c0,0,0,0,0,0.5
		c1.4,3.8,2.8,8,2.3,10.3c-0.5,2.8-2.3,6.6-4.2,10.3c-0.9,1.4-1.4,3.3-2.3,4.7h-48.3c6.6-5.2,13.1-9.9,20.6-11.7
		C214.3,201.6,216.7,197.4,215.3,193.7z M262.2,113c3.8,0,7,0.9,10.3,3.3c-3.3,5.2-3.8,11.3-4.2,16.9c-0.5,4.2-0.9,8.9-2.3,11.3
		c-1.4,2.3-5.2,4.7-9.4,7c-3.8,2.3-7.5,4.7-10.8,7.5c0,0,0,0,0-0.5c-0.9-2.3-1.4-5.6-1.9-9.4c-0.9-6.6-2.3-14.5-6.6-21.6
		C245.8,118.6,254.7,113,262.2,113z M103.6,196c-0.9-7,2.3-15.5,5.6-23c2.8-6.6,4.7-12.2,4.7-17.4c0-6.6-3.8-12.2-7.5-18.8
		c-3.3-5.6-6.6-11.3-7-16c-0.5-7,5.2-13.1,10.8-19.2c1.9-1.9,3.3-3.8,4.7-5.2c0.9-0.9,1.9-2.3,2.8-3.8c2.8-4.2,5.2-7.5,7.5-7
		c1.4,0.5,4.7,4.2,6.6,6.6c3.3,4.2,7,8.4,12.2,9.9c5.6,1.4,11.7,0,16.9-1.4c3.3-0.9,8-2.3,9.9-1.4c1.9,0.9,4.2,5.2,5.6,8.4
		c2.3,5.2,5.2,10.3,9.9,13.1c5.6,3.8,12.7,5.2,19.2,6.1c6.1,0.9,12.7,2.3,16,5.2c4.7,4.2,6.1,11.7,7.5,19.2c0.5,3.8,1.4,8,2.3,11.7
		c0,0.5,0.5,0.9,0.5,1.4c-17.8-5.6-39.4-2.3-56.8,4.2c-13.1-11.7-27.7-35.2-34.3-52.6c-1.4-4.2-6.1-6.1-9.9-4.2
		c-4.2,1.4-6.1,6.1-4.2,9.9c6.6,16.9,19.7,39.4,33.8,54c-16,8.9-32.4,23-34.3,38.9h-2.8C111.1,211.5,105,204.9,103.6,196z"/>
	<path d="M54.4,214.8c-5.2,0-9.4,4.2-9.4,9.4c0,65.5,62.7,162.1,146.8,197.1h-6c-5.2,0-9.4,4.2-9.4,9.4c0,5.2,4.2,9.4,9.4,9.4h131.4
		c5.2,0,9.4-4.2,9.4-9.4c0-4.7-3.5-8.5-8.1-9.1c84.4-34.8,147.3-131.7,147.3-197.3c0-5.2-4.2-9.4-9.4-9.4H54.4z"/>
</g>
</svg>
