<?xml version="1.0" encoding="utf-8"?>
<!-- Generator: Adobe Illustrator 19.0.1, SVG Export Plug-In . SVG Version: 6.00 Build 0)  -->
<svg version="1.1" id="Layer_1" xmlns="http://www.w3.org/2000/svg" xmlns:xlink="http://www.w3.org/1999/xlink" x="0px" y="0px"
	 viewBox="0 0 512 512" style="enable-background:new 0 0 512 512;" xml:space="preserve">
<g>
	<path d="M60.3,245.6c-5,0-9.1,4.1-9.1,9.1c0,63.3,60.6,156.7,141.9,190.5h-5.8c-5,0-9.1,4.1-9.1,9.1c0,5,4.1,9.1,9.1,9.1h127
		c5,0,9.1-4.1,9.1-9.1c0-4.6-3.4-8.2-7.9-8.8c81.6-33.6,142.4-127.3,142.4-190.8c0-5-4.1-9.1-9.1-9.1H60.3z"/>
	<path d="M66.3,248.9c-1-8.5,0.4-16.2,3-23.2c-9.5-16.5-3.6-37.9,13.1-47.1c2.7-9.2,9.1-16.8,17.6-21.1
		c7.3-16.7,24.6-26.8,42.7-24.7c8.1-9.1,20.1-13.5,32.1-11.7c7.1,1.1,25.2-16.2,48.8,4.8c4-0.6,7.8-0.8,11.9-0.6
		c11.9-10.1,28.3-12.5,42.6-6.7c12.7-5.3,27.1-3.9,38.6,3.6l-4.2,22.2c-12.2-12.6-20.3-11.9-34.4-3.8c-14.5-8.4-22.5-8.9-35.2,4.9
		c-11.2-1.3-15.5-0.8-26.1,1.8c-11.9-14.1-21.4-17.3-37.7-5.1c-16.8-4.9-20.2-0.1-27.7,12.8c-20.5-6-29.9-2.5-35.9,17.5
		c-13.1,4.3-14.1,6.7-15.6,20.1c-19.2,6.7-20.1,16.5-8.1,30.6l-2.7,5.7c-3.5,7.3-10,16.4-0.9,20.1l336.2-0.5
		c-0.7-3.8,0.3-5.5,0.9-9.3c10.3-15.5-0.1-28.3-14.7-34.4c-3.8-19.6-12.7-25.6-33.2-20.9l-3.5-4.1l7.9-19.5c0.9,0.8,1.8,1.6,2.6,2.4
		c1.2-0.1,2.4-0.2,3.6-0.2c9.9,0,19.1,3.5,26.3,9.4c6,4.9,10.6,11.5,13.1,19.1c35.7,20.3,14.9,46.2,16.7,57.4L66.3,248.9z"/>
	<path d="M344.2,141.2c5.1,3,9.5,6.9,13,11.7l-9.5,23.4c-2.5-0.7-3.6-9.3-7.5-13.6L344.2,141.2z"/>
	<path d="M343.5,233.6c-3.6,8.9-17.1,3.4-13.5-5.5l64.1-157.5c3.6-8.9,17.1-3.4,13.5,5.5L343.5,233.6z"/>
	<path d="M316.6,224.4c-1.8,9.4-16.1,6.8-14.3-2.7l31.7-168.2c1.8-9.4,16.1-6.8,14.3,2.7L316.6,224.4z"/>
</g>
</svg>
