<?xml version="1.0" encoding="utf-8"?>
<!-- Generator: Adobe Illustrator 19.0.1, SVG Export Plug-In . SVG Version: 6.00 Build 0)  -->
<svg version="1.1" id="Layer_1" xmlns="http://www.w3.org/2000/svg" xmlns:xlink="http://www.w3.org/1999/xlink" x="0px" y="0px"
	 viewBox="0 0 512 512" style="enable-background:new 0 0 512 512;" xml:space="preserve">
<style type="text/css">
	.st0{fill:none;}
</style>
<g>
	<path class="st0" d="M213.9,211.8l16.6,6.1c2.6,1,6.8,1,9.3,0l16.6-6.1c2.6-0.9,2.6-2.5,0-3.4l-16.6-6.1c-2.6-0.9-6.8-0.9-9.3,0
		l-16.6,6.1C211.3,209.3,211.3,210.9,213.9,211.8z"/>
	<path d="M184.7,372.9c0,0,0,0,2.5-1.1c-2.5,1.1-4.9,2.2-7.3,3.3c-5.3,2.5-10.4,4.9-15.1,7.3c-21.4,11-35.6,20.8-34,24.2
		c1.5,3.4,18.3-0.4,40.8-9c4.9-1.9,10.2-4,15.5-6.2c2.4-1,4.9-2.1,7.4-3.2c-2.5,1.1-2.5,1.1-2.5,1.1c-2.7,1.2,4.7-1.8,16.5-6.5
		L468,278.7v-43.9L200.6,365C189.2,370.6,182,374.1,184.7,372.9z"/>
	<path d="M250,378.2c11.2,4.4,29.4,4.4,40.6,0l106-41.4c6.1-2.4,8.9-5.1,9.1-8.8v0.3l0-10.6l-156.1,60.3L250,378.2z"/>
	<path d="M350.7,159.1c-8.6,4.2-22.6,11-31.2,15.2l-2.3,1.1l42.5,16.6c1.7-0.7,3.4-1.3,4.8-1.9L468,148.4V102L350.7,159.1z"/>
	<path d="M84.8,285.4c0,0,0,0,1.9-0.8c-1.9,0.8-3.7,1.7-5.5,2.5c-4,1.9-7.8,3.7-11.3,5.5c-16.1,8.3-26.8,15.6-25.6,18.2
		c1.2,2.6,13.8-0.3,30.7-6.7c3.7-1.4,7.6-3,11.7-4.7c1.8-0.8,3.7-1.6,5.5-2.4c-1.9,0.8-1.9,0.8-1.9,0.8c-2,0.9,3.6-1.3,12.4-4.9
		l19.9-8v-18.1l-25.9,12.6C88.2,283.6,82.8,286.3,84.8,285.4z"/>
	<path d="M200,216.4l18.8,6.9l32.7,12.1l5.2,1.9c8.8,3.2,23.1,3.2,31.8,0l56.6-21c8.7-3.2,8.7-8.5,0-11.8l-8.8-3.3l-41.1-15.2
		l-6.7-2.5c-8.8-3.2-23.1-3.2-31.8,0l-56.6,21C191.3,207.8,191.3,213.1,200,216.4z M213.9,208.4l16.6-6.1c2.6-0.9,6.8-0.9,9.3,0
		l16.6,6.1c2.6,0.9,2.6,2.5,0,3.4l-16.6,6.1c-2.6,1-6.8,1-9.3,0l-16.6-6.1C211.3,210.9,211.3,209.3,213.9,208.4z"/>
	<path d="M143.9,336.8l48.2,18.8l20.1-9.5l193.4-91.1V218c-1.3,1.9-3.8,3.6-7.5,5.1L290.8,265c-11.3,4.4-29.8,4.4-41.1,0l-36.4-14.2
		l-28.2-11l-42.7-16.7c-3.7-1.5-6.2-3.2-7.5-5.1v46.2v18.1v44.6C135.1,330.5,137,334.1,143.9,336.8z M143.6,232.2l11.9,4.7v93.9
		l-11.9-5V232.2z"/>
</g>
</svg>
