<?xml version="1.0" encoding="utf-8"?>
<!-- Generator: Adobe Illustrator 19.0.1, SVG Export Plug-In . SVG Version: 6.00 Build 0)  -->
<svg version="1.1" id="Layer_1" xmlns="http://www.w3.org/2000/svg" xmlns:xlink="http://www.w3.org/1999/xlink" x="0px" y="0px"
	 viewBox="0 0 512 512" style="enable-background:new 0 0 512 512;" xml:space="preserve">
<g>
	<path d="M454.9,269.5l-167,27.7l124.8-63c0,0,1.1-27.4-21.2-18.6l-165,91.7L57.8,335.3c-1.7,9.3,5.3,9.9,5.3,9.9L186,329.8
		L51.8,404.5c0,0-5.3,4.6,1.5,11.1l182.1-91.9L448.8,297C472.1,291,454.9,269.5,454.9,269.5z"/>
	<path d="M172,258c0-0.1,0-0.2,0-0.3c0-0.1,0-0.2,0-0.3V258z"/>
	<path d="M109.5,173C109.5,173,109.5,173,109.5,173c-35.6,0-62.4,15.6-62.4,36.3C47.1,188.6,73.9,173,109.5,173z"/>
	<path d="M83.6,242.5c7.8,2,16.5,3.1,25.9,3.1c0,0,0,0,0,0C100.2,245.5,91.5,244.4,83.6,242.5c-0.1,0-0.2-0.1-0.2-0.1
		C83.5,242.4,83.6,242.4,83.6,242.5z"/>
	<path d="M76.8,288.9c0,0,0.1,0,0.1,0C76.9,288.9,76.8,288.9,76.8,288.9L76.8,288.9z"/>
	<path d="M75.4,241.4c1.9,0.7,3.9,1.3,5.9,1.9c8.4,2.3,18,3.7,28.3,3.7c0,0,0,0,0,0c-10.3,0-19.8-1.3-28.3-3.7
		C79.2,242.7,77.3,242.1,75.4,241.4z"/>
	<path d="M109.5,294C109.5,294,109.5,294,109.5,294C109.5,294,109.5,294,109.5,294C109.5,294,109.5,294,109.5,294z"/>
	<path d="M47.1,257.7c0,0.1,0,0.2,0,0.3v-0.7C47.1,257.5,47.1,257.6,47.1,257.7z"/>
	<path d="M83.7,242.5c0.4-0.1,0.7-0.2,1.1-0.3c-6.2-1.6-12.5-3.9-19-7.2c-0.2,0.1-0.5,0.2-0.7,0.3c2.9,1.7,6.1,3.2,9.6,4.5
		c2.7,1,5.6,1.9,8.7,2.7C83.5,242.4,83.6,242.4,83.7,242.5z"/>
	<path d="M109.5,218.4C109.5,218.4,109.5,218.4,109.5,218.4c-11.1,0-20-4.6-20-10.3c0-5.7,9-10.3,20-10.3c0,0,0,0,0,0
		c-11,0-20,4.6-20,10.3C89.5,213.7,98.5,218.4,109.5,218.4z"/>
	<path d="M154.8,209.3c0-7.8-17.7-19.1-45.3-19.1c0,0,0,0,0,0C137.1,190.2,154.8,201.5,154.8,209.3z"/>
	<path d="M109.5,228.4C109.5,228.4,109.5,228.4,109.5,228.4c27.4,0,45-11.1,45.2-18.9l0,0C154.5,217.3,136.9,228.4,109.5,228.4z"/>
	<path d="M154.8,209.5c0-0.1,0-0.1,0-0.2h0V209.5z"/>
	<path d="M154.8,209.5c0-0.1,0-0.1,0-0.2C154.8,209.4,154.8,209.4,154.8,209.5L154.8,209.5z"/>
	<path d="M64.3,209.3L64.3,209.3c0,0.1,0,0.1,0,0.2V209.3z"/>
	<path d="M129.6,208.1c0,5.7-9,10.3-20,10.3c0,0,0,0,0,0C120.6,218.4,129.6,213.7,129.6,208.1c0-5.7-9-10.3-20-10.3c0,0,0,0,0,0
		C120.6,197.7,129.6,202.3,129.6,208.1z"/>
	<path d="M89.5,208.1c0,5.7,9,10.3,20,10.3c11.1,0,20-4.6,20-10.3c0-5.7-9-10.3-20-10.3C98.5,197.7,89.5,202.3,89.5,208.1z"/>
	<path d="M142.3,288.9L142.3,288.9c0,0-0.1,0-0.1,0C142.2,289,142.2,288.9,142.3,288.9z"/>
	<path d="M109.5,294C109.6,294,109.6,294,109.5,294C109.6,294,109.6,294,109.5,294C109.5,294,109.5,294,109.5,294z"/>
	<path d="M109.5,247C109.5,247,109.5,247,109.5,247c10.3,0,19.8-1.3,28.3-3.7c2-0.6,4-1.2,5.9-1.9c-1.9,0.7-3.9,1.3-5.9,1.9
		C129.4,245.6,119.8,247,109.5,247z"/>
	<path d="M135.4,242.5c0.1,0,0.2-0.1,0.2-0.1C135.6,242.4,135.5,242.4,135.4,242.5c-7.8,2-16.5,3.1-25.9,3.1c0,0,0,0,0,0
		C118.9,245.5,127.6,244.4,135.4,242.5z"/>
	<path d="M172,209.3c0-20.7-26.8-36.3-62.4-36.3c0,0,0,0,0,0C145.1,173,172,188.6,172,209.3z"/>
	<path d="M64.3,209.5L64.3,209.5c0.3,7.8,17.9,18.9,45.2,18.9c0,0,0,0,0,0C82.1,228.4,64.6,217.3,64.3,209.5z"/>
	<path d="M109.5,190.2C109.5,190.2,109.5,190.2,109.5,190.2c-27.6,0-45.3,11.3-45.3,19.1C64.2,201.5,81.9,190.2,109.5,190.2z"/>
	<path d="M64.3,209.5c0-0.1,0-0.1,0-0.2C64.2,209.4,64.3,209.4,64.3,209.5L64.3,209.5z"/>
	<path d="M366.9,179.5c0-0.1,0-0.2,0-0.3s0-0.2,0-0.3V179.5z"/>
	<path d="M271.8,219.4c0-0.1,0-0.2,0-0.3v0.7C271.8,219.6,271.8,219.5,271.8,219.4z"/>
	<path d="M253.8,196.9l-3,1.2c0.1,0.1,0.2,0.2,0.3,0.3C252,197.9,252.9,197.4,253.8,196.9z"/>
	<path d="M184.2,173c-2.6,0-4.7-1.3-4.7-2.8c0-1.6,2.1-2.8,4.7-2.8s4.7,1.3,4.7,2.8C189,171.7,186.8,173,184.2,173z M196.2,178.8
		c-2.6,0-4.7-1.3-4.7-2.8c0-1.6,2.1-2.8,4.7-2.8c2.6,0,4.7,1.3,4.7,2.8C201,177.5,198.9,178.8,196.2,178.8z M196.2,167
		c-2.6,0-4.7-1.3-4.7-2.8c0-1.5,2.1-2.8,4.7-2.8c2.6,0,4.7,1.3,4.7,2.8C201,165.7,198.9,167,196.2,167z M208.3,185.1
		c-2.6,0-4.7-1.3-4.7-2.8c0-1.6,2.1-2.8,4.7-2.8c2.6,0,4.7,1.3,4.7,2.8C213,183.8,210.9,185.1,208.3,185.1z M208.3,173.2
		c-2.6,0-4.7-1.3-4.7-2.8c0-1.5,2.1-2.8,4.7-2.8c2.6,0,4.7,1.3,4.7,2.8C213,171.9,210.9,173.2,208.3,173.2z M208.3,161.3
		c-2.6,0-4.7-1.3-4.7-2.8c0-1.5,2.1-2.8,4.7-2.8c2.6,0,4.7,1.3,4.7,2.8C213,160,210.9,161.3,208.3,161.3z M220.3,178.8
		c-2.6,0-4.7-1.3-4.7-2.8c0-1.6,2.1-2.8,4.7-2.8c2.6,0,4.7,1.3,4.7,2.8C225,177.5,222.9,178.8,220.3,178.8z M220.3,167
		c-2.6,0-4.7-1.3-4.7-2.8c0-1.5,2.1-2.8,4.7-2.8c2.6,0,4.7,1.3,4.7,2.8C225,165.7,222.9,167,220.3,167z M232.3,173
		c-2.6,0-4.7-1.3-4.7-2.8c0-1.6,2.1-2.8,4.7-2.8c2.6,0,4.8,1.3,4.8,2.8C237,171.7,234.9,173,232.3,173z"/>
	<path d="M184.2,167.3c-2.6,0-4.7,1.3-4.7,2.8c0,1.5,2.1,2.8,4.7,2.8s4.7-1.3,4.7-2.8C189,168.6,186.8,167.3,184.2,167.3z"/>
	<path d="M196.2,161.3c-2.6,0-4.7,1.3-4.7,2.8c0,1.6,2.1,2.8,4.7,2.8c2.6,0,4.7-1.3,4.7-2.8C201,162.6,198.9,161.3,196.2,161.3z"/>
	<path d="M208.3,155.7c-2.6,0-4.7,1.3-4.7,2.8c0,1.6,2.1,2.8,4.7,2.8c2.6,0,4.7-1.3,4.7-2.8C213,156.9,210.9,155.7,208.3,155.7z"/>
	<path d="M208.3,179.4c-2.6,0-4.7,1.3-4.7,2.8c0,1.5,2.1,2.8,4.7,2.8c2.6,0,4.7-1.3,4.7-2.8C213,180.7,210.9,179.4,208.3,179.4z"/>
	<path d="M220.3,173.1c-2.6,0-4.7,1.3-4.7,2.8c0,1.5,2.1,2.8,4.7,2.8c2.6,0,4.7-1.3,4.7-2.8C225,174.4,222.9,173.1,220.3,173.1z"/>
	<path d="M232.3,167.3c-2.6,0-4.7,1.3-4.7,2.8c0,1.5,2.1,2.8,4.7,2.8c2.6,0,4.8-1.3,4.8-2.8C237,168.6,234.9,167.3,232.3,167.3z"/>
	<path d="M196.2,173.1c-2.6,0-4.7,1.3-4.7,2.8c0,1.5,2.1,2.8,4.7,2.8c2.6,0,4.7-1.3,4.7-2.8C201,174.4,198.9,173.1,196.2,173.1z"/>
	<path d="M208.3,167.6c-2.6,0-4.7,1.3-4.7,2.8c0,1.6,2.1,2.8,4.7,2.8c2.6,0,4.7-1.3,4.7-2.8C213,168.8,210.9,167.6,208.3,167.6z"/>
	<path d="M220.3,161.3c-2.6,0-4.7,1.3-4.7,2.8c0,1.6,2.1,2.8,4.7,2.8c2.6,0,4.7-1.3,4.7-2.8C225,162.6,222.9,161.3,220.3,161.3z"/>
	<path d="M164.1,171c0,0.1,0,0.1,0,0.2L164.1,171L164.1,171z"/>
	<path d="M254.6,171.2c0-0.1,0-0.1,0-0.2h0V171.2z"/>
	<path d="M242.1,184l0.6,0.4c-0.1-0.4-0.1-0.7-0.2-1.1c-0.2,0.1-0.3,0.1-0.4,0.2L242.1,184L242.1,184z"/>
	<path d="M259.3,130.8c0,0.1,0,0.1,0,0.2L259.3,130.8L259.3,130.8z"/>
	<path d="M349.8,131c0-0.1,0-0.1,0-0.2h0V131z"/>
	<path d="M324.6,129.6c0-5.7-9-10.3-20-10.3c-11,0-20,4.6-20,10.3c0,5.7,9,10.3,20,10.3C315.6,139.9,324.6,135.2,324.6,129.6z"/>
	<path d="M253.1,196.7c-0.9,0.4-1.7,0.8-2.5,1.2c0.1,0.1,0.2,0.2,0.2,0.2l3-1.2C253.5,196.8,253.3,196.8,253.1,196.7z"/>
	<path d="M304.5,167c9.4,0,18.1-1.1,25.9-3.1c7-1.8,13.3-4.2,18.5-7.2c3.7-2.1,6.8-4.5,9.5-7.1c5.3-5.3,8.4-11.5,8.6-18.3
		c0-0.2,0-0.3,0-0.5c0-20.7-26.9-36.3-62.5-36.3s-62.4,15.6-62.4,36.3c0,0.2,0,0.3,0,0.5c0.1,3.3,0.8,6.4,2.2,9.3
		c-0.6-0.2-1.2-0.4-1.8-0.6c0,0.1,0.1,0.2,0.1,0.3l-0.5-0.4c-9.4-3.2-20.5-5.1-32.7-5.1c-35.6,0-62.4,15.6-62.4,36.3
		c0,0.2,0,0.3,0,0.5c0.1,3.3,0.8,6.4,2.2,9.4c-10.6-4.9-24.3-7.8-39.6-7.8c-35.6,0-62.5,15.6-62.5,36.3c0,0.2,0,0.3,0,0.5
		c0.1,5.4,2.1,10.5,5.6,15c0.9,1.2,1.9,2.3,2.9,3.4c2.6,2.6,5.8,5,9.5,7.1c0,0,10.1,5.5,18.5,7.2c7.8,2,16.5,3.1,25.9,3.1
		c9.4,0,18.1-1.1,25.9-3.1c0.1,0,0.2-0.1,0.3-0.1c3-0.8,5.9-1.7,8.7-2.7c3.5-1.3,6.7-2.8,9.6-4.5c3.7-2.1,6.8-4.5,9.5-7.1
		c1.1-1.1,2-2.2,2.9-3.4c2.1-2.7,3.6-5.7,4.6-8.8l0.1,3.9c-1.4,3.1-3.5,6-6.1,8.7c-2.6,2.7-5.8,5.2-9.4,7.4
		c-3.5,2.1-7.5,3.9-11.8,5.5c0,0,0,0,0,0c-1.9,0.7-3.9,1.3-5.9,1.9c-8.4,2.3-18,3.7-28.3,3.7c0,0,0,0,0,0s0,0,0,0
		c-10.3,0-19.8-1.3-28.3-3.7l-5.9-1.9c-4.3-1.5-8.3-3.4-11.8-5.5c-3.7-2.2-6.8-4.7-9.4-7.4c-3.2-3.4-5.7-7-7-11v39.9v0.7
		c0,1.7,0.3,3.4,0.7,5c2.6,11.2,13.4,20.5,29,25.9c0,0,0.1,0,0.1,0c2,0.7,4.2,1.3,6.3,1.9c0.6,0.2,1.3,0.3,1.9,0.5
		c2.1,0.5,4.3,1,6.6,1.3c0.2,0,0.4,0.1,0.6,0.1c2.3,0.4,4.8,0.6,7.2,0.8c0.7,0.1,1.4,0.1,2.1,0.2c2.6,0.2,5.2,0.3,7.8,0.3
		c0,0,0.1,0,0.1,0c0,0,0.1,0,0.1,0c2.7,0,5.3-0.1,7.8-0.3c0.7,0,1.4-0.1,2.1-0.2c2.5-0.2,4.9-0.5,7.2-0.8c0.2,0,0.4-0.1,0.6-0.1
		c2.3-0.4,4.5-0.8,6.6-1.3c0.6-0.2,1.3-0.3,1.9-0.5c2.2-0.6,4.3-1.2,6.3-1.9c0,0,0.1,0,0.1,0c15.6-5.4,26.4-14.7,29-25.9
		c0.4-1.6,0.6-3.3,0.7-5v-0.7v-8.6c10.3,4.3,23.1,6.9,37.4,6.9c32.5,0,57.6-13,61.8-31c0.4-1.6,0.6-3.3,0.7-5v-0.7v-8.7
		c9.4,3.2,20.5,5.1,32.7,5.1c32.5,0,57.6-13,61.8-31c0.4-1.6,0.6-3.3,0.7-5v-0.7V139c-2.5,7.2-8.3,13.5-16.5,18.4
		c-5,3-11,5.5-17.7,7.4c-8.4,2.3-18,3.7-28.3,3.7s-19.8-1.3-28.3-3.7c-2-0.6-4-1.2-5.9-1.9c-0.2-0.6-0.5-1.2-0.8-1.8
		c2.9,1.1,5.9,2,9.1,2.8C286.5,165.9,295.2,167,304.5,167z M154.8,209.5c-0.3,7.8-17.9,18.9-45.2,18.9c0,0,0,0,0,0c0,0,0,0,0,0
		c-27.4,0-44.9-11.1-45.2-18.9c0-0.1,0-0.1,0-0.2c0-7.8,17.7-19.1,45.3-19.1c0,0,0,0,0,0c0,0,0,0,0,0c27.6,0,45.3,11.3,45.3,19.1
		C154.8,209.4,154.8,209.4,154.8,209.5z M164.1,171.2c0-0.1,0-0.1,0-0.2c0-7.8,17.7-19.1,45.3-19.1c13.7,0,24.9,2.8,32.7,6.5
		c8,3.8,12.5,8.6,12.5,12.6c0,0.1,0,0.1,0,0.2c-0.1,3.8-4.5,8.4-12.1,12.2c0.1,0.4,0.1,0.7,0.2,1.1l-0.6-0.4v-0.5
		c-7.9,3.7-19.1,6.5-32.7,6.5C182,190.1,164.4,179,164.1,171.2z M271.8,171.5v7.8c-2.5,7.2-8.3,13.5-16.5,18.4
		c-1,0.6-2.1,1.2-3.2,1.8c-4.3,2.2-9.2,4.1-14.5,5.6c-8.4,2.3-18,3.7-28.3,3.7c-10.3,0-19.8-1.3-28.3-3.7c-3.7-1-7.3-2.3-10.5-3.7v0
		c-0.2-0.7-0.5-1.3-0.8-2c4.2,1.9,8.8,3.5,13.7,4.8c7.8,2,16.5,3.1,25.9,3.1c9.4,0,18.1-1.1,25.9-3.1c5.8-1.5,11.1-3.4,15.8-5.8
		c-0.2-0.2-0.3-0.3-0.5-0.5c0.8-0.4,1.7-0.8,2.5-1.2c0.2,0.1,0.5,0.2,0.7,0.3c3.7-2.1,6.8-4.5,9.5-7.1
		C268.6,184.5,271.7,178.3,271.8,171.5z M259.3,131c0-0.1,0-0.1,0-0.2c0-7.8,17.7-19.1,45.3-19.1c27.6,0,45.3,11.3,45.3,19.1
		c0,0.1,0,0.1,0,0.2c-0.3,7.8-17.9,18.9-45.3,18.9C277.1,149.9,259.6,138.8,259.3,131z"/>
</g>
</svg>
