<?xml version="1.0" encoding="utf-8"?>
<!-- Generator: Adobe Illustrator 19.0.1, SVG Export Plug-In . SVG Version: 6.00 Build 0)  -->
<svg version="1.1" id="Layer_1" xmlns="http://www.w3.org/2000/svg" xmlns:xlink="http://www.w3.org/1999/xlink" x="0px" y="0px"
	 viewBox="0 0 512 512" style="enable-background:new 0 0 512 512;" xml:space="preserve">
<path d="M199.3,199.9c1.8,1.8,4.2,2.7,6.5,2.7s4.7-0.9,6.5-2.7c3.6-3.6,3.6-9.4,0-13c-6.5-6.5-3.5-17.3,2.2-34.3
	c6-17.9,12.7-38.2-2.2-53.2c-3.6-3.6-9.4-3.6-13,0c-3.6,3.6-3.6,9.4,0,13c6.5,6.5,3.5,17.3-2.2,34.3
	C191.1,164.6,184.4,184.9,199.3,199.9z"/>
<path d="M243,199.9c1.8,1.8,4.2,2.7,6.5,2.7c2.4,0,4.7-0.9,6.5-2.7c3.6-3.6,3.6-9.4,0-13c-7.4-7.5-1.9-35.1,2.5-57.3
	c6.1-30.6,11.9-59.5-2.5-73.9c-3.6-3.6-9.4-3.6-13,0c-3.6,3.6-3.6,9.4,0,13c7.5,7.4,1.9,35.1-2.5,57.3
	C234.4,156.6,228.6,185.5,243,199.9z"/>
<path d="M286.8,199.9c1.8,1.8,4.2,2.7,6.5,2.7s4.7-0.9,6.5-2.7c3.6-3.6,3.6-9.4,0-13c-6.5-6.5-3.5-17.3,2.2-34.3
	c6-17.9,12.7-38.2-2.2-53.2c-3.6-3.6-9.4-3.6-13,0c-3.6,3.6-3.6,9.4,0,13c6.5,6.5,3.5,17.3-2.2,34.3
	C278.6,164.6,271.8,184.9,286.8,199.9z"/>
<path d="M465.2,142c-3.6-3.6-9.4-3.6-13,0l-98.4,98.4H54.2c-5.1,0-9.2,4.1-9.2,9.2c0,64.1,61.4,158.8,143.8,193h-5.9
	c-5.1,0-9.2,4.1-9.2,9.2c0,5.1,4.1,9.2,9.2,9.2h128.7c5.1,0,9.2-4.1,9.2-9.2c0-4.6-3.5-8.3-8-8.9c82.7-34.1,144.3-129,144.3-193.3
	c0-5.1-4.1-9.2-9.2-9.2h-68.2l85.4-85.4C468.8,151.4,468.8,145.6,465.2,142z"/>
</svg>
