<?xml version="1.0" encoding="utf-8"?>
<!-- Generator: Adobe Illustrator 19.0.1, SVG Export Plug-In . SVG Version: 6.00 Build 0)  -->
<svg version="1.1" id="Layer_1" xmlns="http://www.w3.org/2000/svg" xmlns:xlink="http://www.w3.org/1999/xlink" x="0px" y="0px"
	 viewBox="0 0 512 512" style="enable-background:new 0 0 512 512;" xml:space="preserve">
<g>
	<path d="M465,228.1c-1.3-6.8-4.4-12.9-8.8-17.9c2.4-6.2,3.1-13.1,1.8-19.9c-3.2-17.5-18.5-30.3-36.4-30.3c-2.3,0-4.5,0.2-6.8,0.6
		c-17.7,3.3-30.1,18.7-30.2,36.1l-10.3,1.9l-15,2.8c-35-40.6-96.1-67.4-165.6-67.4C85,134,45.2,198.7,45.2,279.6
		c0,80.9,39.8,97.4,148.4,97.4c108.7,0,196.7-15.7,196.7-96.6c0-10.5-1.5-20.7-4.3-30.5l8.1-1.5c1.8,4.7,4.6,8.8,8.1,12.3
		c6.8,6.9,16.1,11.2,26.4,11.2c2.3,0,4.5-0.2,6.8-0.6C455.4,267.5,468.7,248.1,465,228.1z M432.9,257.9c-1.4,0.3-2.9,0.4-4.3,0.4
		c-0.1,0-0.2,0-0.2,0c-0.5,0-0.9-0.1-1.3-0.1c-1-0.1-2-0.2-3-0.4c-0.5-0.1-1-0.3-1.6-0.4c-0.9-0.2-1.7-0.5-2.5-0.8
		c-0.5-0.2-1-0.5-1.6-0.7c-0.8-0.4-1.5-0.8-2.2-1.2c-0.5-0.3-1-0.6-1.4-1c-0.7-0.5-1.3-1.1-1.9-1.6c-0.4-0.4-0.8-0.8-1.2-1.2
		c-0.6-0.6-1.1-1.3-1.7-2c-0.3-0.5-0.7-0.9-1-1.4c-0.5-0.8-1-1.7-1.4-2.6c-0.2-0.4-0.5-0.9-0.6-1.3c-0.5-1.4-1-2.8-1.3-4.3
		c-0.4-2.2-0.5-4.4-0.3-6.6l-45.8,8.5c-13.1,36.4-94.1,77.1-128.7,83.5c-4.4,0.8-8.9,1.2-13.2,1.2c-34,0-64.2-24.2-70.7-58.9
		c-7.3-39.1,18.6-76.6,57.7-83.9c7-1.3,16.3-2,26.8-2c42.3,0,105.1,10.8,124.2,34.9l45.1-8.3c-1-1.9-1.7-4-2.1-6.2
		c-2.4-12.7,6-25,18.8-27.3c1.4-0.3,2.9-0.4,4.3-0.4c0.1,0,0.2,0,0.2,0c0.4,0,0.9,0.1,1.3,0.1c1,0.1,2,0.2,3,0.4
		c0.5,0.1,1.1,0.3,1.6,0.4c0.9,0.2,1.7,0.5,2.5,0.8c0.5,0.2,1.1,0.5,1.6,0.7c0.8,0.4,1.5,0.8,2.2,1.2c0.5,0.3,1,0.7,1.5,1
		c0.7,0.5,1.3,1,1.9,1.6c0.4,0.4,0.9,0.8,1.3,1.2c0.6,0.6,1.1,1.3,1.6,2c0.3,0.5,0.7,0.9,1,1.4c0.5,0.8,0.9,1.7,1.3,2.6
		c0.2,0.4,0.5,0.9,0.6,1.3c0.5,1.4,1,2.8,1.3,4.3c1.4,7.8-1.2,15.5-6.4,20.7c6.7,3.1,11.9,9.2,13.4,17.1
		C454,243.3,445.6,255.5,432.9,257.9z"/>
	<path d="M349.5,229.7c-3.4-18-59.9-35.1-116.3-35.1c-9.8,0-18.2,0.6-24.3,1.7c-15.4,2.8-28.7,11.5-37.5,24.4
		c-8.8,12.9-12.1,28.4-9.3,43.7c5.1,27.7,29.2,47.8,57.3,47.8c3.6,0,7.2-0.3,10.8-1c16.3-3,49-16.2,77.6-34.8
		C341,254.9,351,237.7,349.5,229.7z"/>
</g>
</svg>
