<?xml version="1.0" encoding="utf-8"?>
<!-- Generator: Adobe Illustrator 19.0.1, SVG Export Plug-In . SVG Version: 6.00 Build 0)  -->
<svg version="1.1" id="Layer_1" xmlns="http://www.w3.org/2000/svg" xmlns:xlink="http://www.w3.org/1999/xlink" x="0px" y="0px"
	 viewBox="0 0 512 512" style="enable-background:new 0 0 512 512;" xml:space="preserve">
<path d="M463.1,335.9l-16.5-65.5l-10.4-74.9l8-5.7c8.5-5.7,10.4-17,4.7-25.4l-19.8-28.3c-5.7-8.5-17-10.4-25.4-4.7l-25.4,17.9l0,0
	l5.7-34.9c1.4-10.4-3.3-19.8-11.3-20.7l-44.3-7.1c-8-1.4-15.6,6.1-17,16.5l-5.7,34.9c0,0.9,0,1.9,0,2.8l-6.1-23.1
	c-2.8-10.4-11.3-16.5-19.3-14.1l-46.7,14.1c-4.7,1.4-8,5.7-9.4,10.8h-0.5l-50.9-20.3c-9-3.8-20.3,3.8-25.4,16l-9.9,25l0,0l26.9,20.3
	l-26.9-20.3c-8-6.1-21.7-2.4-30.6,8L55,217.2c-9,10.4-9.9,24-1.9,29.7L80,267.1c2.8,2.4,6.6,2.8,10.4,2.8c-0.9,0-1.4,0-2.4,0
	l19.3,70.2l5.2,61.3c2.8,15.1,27.3,23.1,73,23.1l0,0c31.6,0,70.7-4.2,110.7-11.3c45.7-8.5,87.6-20.7,118.7-33.9
	C449.4,364.2,465.5,349.6,463.1,335.9z M355.2,165.8c-0.5-0.5-0.5-0.5-0.9-0.9l1.9,0.5C355.7,165.3,355.7,165.3,355.2,165.8z
	 M350,173.4l15.1,18.8c0,0,1.4,5.7-2.8,2.8c0,0-13.2-18.4-19.8-18.8c0,0-8.5,0-35.3,16.5l30.6-23.1
	C337.8,169.6,343.4,165.3,350,173.4z M412.2,138c0,0,6.1-3.8,12.3,4.7l14.1,19.8c0,0,0.9,5.7-3.3,2.8c0,0-12.3-19.8-18.8-20.3
	c0,0-8.5-0.9-36.8,14.6L412.2,138z M368.9,99.8c0,0,5.7,0.9,4.2,9.4l-2.8,18.8c0,0-2.4,3.8-3.3,0c0,0,3.8-17.9,0.5-21.7
	c0,0-4.2-5.2-28.7-11.8L368.9,99.8z M308.5,153.1c1.9,2.8,4.7,5.2,8,5.7l17.9,2.8c-0.9,0.5-2.4,1.4-3.3,1.9l-44.3,34.9l-6.6-10.4
	c-1.4-1.9-2.8-3.8-4.7-5.2l23.1-7.1C306.7,172.9,310.9,163,308.5,153.1z M261.4,188.4c0,0,11.3-2.8,14.6,15.6c0,0-8-12.7-16-9
	c0,0-5.2,0-27.3,10.4C232.7,205.4,251.5,190.3,261.4,188.4z M283.1,110.2c0,0,5.7-1.4,9,9.4l7.1,25c0,0-0.5,6.1-3.3,1.4
	c0,0-5.7-23.6-10.4-26.9c0,0-6.6-3.8-33.5,0.5L283.1,110.2z M244.5,189.4L208.6,212c-4.7,3.3-8,8-8,13.7l-1.9-8
	c0-0.5-0.5-0.9-0.5-1.4c6.6-1.9,12.7-8,16-16l15.6-38.6l3.8,14.6C235,182.8,239.3,187.5,244.5,189.4z M179.9,215.3
	c0,0,6.6-2.4,9,5.7l5.7,18.4c0,0-0.9,4.7-3.8,1.9c0,0-4.2-17.9-9.4-19.3c0,0-7.1-1.9-37.7,5.7L179.9,215.3z M144.1,221l14.6-16.5
	l16,6.6L144.1,221z M217.6,136.6c0,0,9,3.3,4.7,17l-10.4,31.1c0,0-5.2,5.7-5.7-0.9c0,0,11.3-28.7,7.1-36.3c0,0-6.1-9.4-44.8-28.3
	L217.6,136.6z M77.6,202.1L113,162c0,0,6.6-7.1,15.1-0.9l19.3,14.6c0,0,1.9,5.7-3.3,4.7c0,0-17.4-15.1-25-12.7
	C119.6,167.7,109.2,171.5,77.6,202.1z M409.9,367.5c-30.2,13.2-71.6,25-116.4,33c-39.1,7.1-77.3,11.3-108.4,11.3
	c-42.9,0-59.8-7.5-60.8-12.7l-5.2-61.7l-19.3-69.7c0,0,0,0-0.5,0c4.2-1.9,8-4.7,11.3-8.5l2.4-2.8l4.2,17c1.9,7.5,11.3,11.3,20.7,8
	l53.2-17.9c9.4-3.3,15.6-11.8,13.2-19.8l-1.9-7.1l17.4,27.8c5.2,8.5,16,10.8,24.5,5.7l47.6-29.7c0.9-0.5,1.9-1.4,2.8-1.9l9.4,11.8
	c6.1,8,17.4,9,25.4,2.8l44.3-34.9l-1.4,1.4c6.1,7.1,16.5,9,24.5,3.3l28.3-19.8l8.5,67.4l17,67.9
	C451.3,342.1,443.8,352.9,409.9,367.5z M92.2,270c0.9,0,1.4,0,2.4-0.5C93.7,269.5,92.7,270,92.2,270z M96,269c0.9,0,1.4-0.5,2.4-0.9
	C97.4,268.5,97,269,96,269z"/>
</svg>
