<?xml version="1.0" encoding="utf-8"?>
<!-- Generator: Adobe Illustrator 19.0.1, SVG Export Plug-In . SVG Version: 6.00 Build 0)  -->
<svg version="1.1" id="Layer_1" xmlns="http://www.w3.org/2000/svg" xmlns:xlink="http://www.w3.org/1999/xlink" x="0px" y="0px"
	 viewBox="0 0 512 512" style="enable-background:new 0 0 512 512;" xml:space="preserve">
<path d="M190.5,119.6c-29.2,0-53.5,9.9-53.5,22v55.7l0,0c0,15.4,23.7,27.6,53.5,27.6c29.2,0,53.5-12.1,53.5-27.6l0,0v-55.7
	C243.4,129.6,219.7,119.6,190.5,119.6z M190.5,157.7c-21.5,0-39.1-7.2-39.1-16s17.6-16,39.1-16s39.1,7.2,39.1,16
	C229.6,150.5,212,157.7,190.5,157.7z"/>
<path d="M213.1,141.7c0,5-10.5,9.4-23.1,9.4s-23.1-4.4-23.1-9.4s10.5-9.4,23.1-9.4C203.2,132.3,213.1,136.7,213.1,141.7z"/>
<path d="M303.5,148.8c-29.2,0-53.5,9.9-53.5,22v55.7l0,0c0,15.4,23.7,27.6,53.5,27.6c29.2,0,53.5-12.1,53.5-27.6l0,0v-55.7
	C356.4,158.8,332.7,148.8,303.5,148.8z M303.5,186.9c-21.5,0-39.1-7.2-39.1-16s17.6-16,39.1-16c21.5,0,39.1,7.2,39.1,16
	C342.6,179.7,325,186.9,303.5,186.9z"/>
<path d="M326.1,170.9c0,5-10.5,9.4-23.1,9.4s-23.1-4.4-23.1-9.4s10.5-9.4,23.1-9.4C316.2,161.5,326.1,165.4,326.1,170.9z"/>
<path d="M99.6,210.6c-29.2,0-53.5,9.9-53.5,22v55.7l0,0c0,15.4,23.7,27.6,53.5,27.6c29.2,0,53.5-12.1,53.5-27.6l0,0v-55.7
	C152.5,220.5,128.8,210.6,99.6,210.6z M99.6,248.6c-21.5,0-39.1-7.2-39.1-16s17.6-16,39.1-16s39.1,7.2,39.1,16
	C138.7,241.4,121.1,248.6,99.6,248.6z"/>
<path d="M122.2,232.6c0,5-10.5,9.4-23.1,9.4s-23.1-4.4-23.1-9.4s10.5-9.4,23.1-9.4C112.2,223.3,122.2,227.7,122.2,232.6z"/>
<path d="M212.6,239.8c-29.2,0-53.5,9.9-53.5,22v55.7l0,0c0,15.4,23.7,27.6,53.5,27.6c29.2,0,53.5-12.1,53.5-27.6l0,0v-55.7
	C266,249.7,241.8,239.8,212.6,239.8z M212.6,277.8c-21.5,0-39.1-7.2-39.1-16c0-8.8,17.6-16,39.1-16s39.1,7.2,39.1,16
	C251.7,270.7,234.1,277.8,212.6,277.8z"/>
<ellipse cx="212.6" cy="261.8" rx="23.1" ry="9.4"/>
<path d="M410.4,194.6c-29.2,0-53.5,9.9-53.5,22v55.7l0,0c0,15.4,23.7,27.6,53.5,27.6c29.2,0,53.5-12.1,53.5-27.6l0,0v-56.2
	C463.9,204,440.2,194.6,410.4,194.6z M410.4,232.1c-21.5,0-39.1-7.2-39.1-16c0-8.8,17.6-16,39.1-16c21.5,0,39.1,7.2,39.1,16
	C449.6,224.9,431.9,232.1,410.4,232.1z"/>
<ellipse cx="410.4" cy="216.1" rx="23.1" ry="9.4"/>
<path d="M318.9,285c-29.2,0-53.5,9.9-53.5,22v55.7l0,0c0,15.4,23.7,27.6,53.5,27.6c29.2,0,53.5-12.1,53.5-27.6l0,0V307
	C372.4,294.9,348.7,285,318.9,285z M318.9,323c-21.5,0-39.1-7.2-39.1-16s17.6-16,39.1-16s39.1,7.2,39.1,16
	C358.1,315.9,340.4,323,318.9,323z"/>
<path d="M342.1,307c0,5-10.5,9.4-23.1,9.4s-23.1-4.4-23.1-9.4c0-5,10.5-9.4,23.1-9.4C331.6,297.7,342.1,302.1,342.1,307z"/>
</svg>
