<?xml version="1.0" encoding="utf-8"?>
<!-- Generator: Adobe Illustrator 19.0.1, SVG Export Plug-In . SVG Version: 6.00 Build 0)  -->
<svg version="1.1" id="Layer_1" xmlns="http://www.w3.org/2000/svg" xmlns:xlink="http://www.w3.org/1999/xlink" x="0px" y="0px"
	 viewBox="0 0 512 512" style="enable-background:new 0 0 512 512;" xml:space="preserve">
<g>
	<g>
		<g>
			<path d="M262.4,161.2c-51.6,0-93.7,42-93.7,93.7s42,93.7,93.7,93.7s93.7-42,93.7-93.7S314.1,161.2,262.4,161.2z"/>
			<path d="M262.4,127.5C192,127.5,135,184.5,135,254.9S192,382.3,262.4,382.3s127.4-57.1,127.4-127.4S332.8,127.5,262.4,127.5z
				 M262.4,353.2c-54.2,0-98.3-44.1-98.3-98.3s44.1-98.3,98.3-98.3s98.3,44.1,98.3,98.3S316.6,353.2,262.4,353.2z"/>
		</g>
		<path d="M107.4,128.6v62.2c0,3.3-2.7,6-6,6c-3.3,0-6-2.7-6-6v-63.4H78.3v63.3c0,3.3-2.7,6-6,6s-6-2.7-6-6v-62.2
			c-7.8,2.8-13.4,10.2-13.4,19v52.2c0,10.9,11.2,19.8,22.1,20.1v148.1c0,8,3.9,14.4,11.9,14.4s11.9-6.5,11.9-14.4V219.8
			c10.8-0.3,22.1-9.2,22.1-20.1v-52.2C120.8,138.8,115.2,131.4,107.4,128.6z"/>
		<path d="M412.5,188.3c0.2-30,20-54.9,46.4-60.7v60.7v35h0.1v145.1c0,7.8-3.8,14.2-11.6,14.2c-7.8,0-11.6-6.3-11.6-14.2v-104
			c-14.9-5.1-23-15.3-23.2-27.2h0v-0.4v-47.9L412.5,188.3C412.5,188.3,412.5,188.3,412.5,188.3z"/>
	</g>
</g>
</svg>
