<?xml version="1.0" encoding="utf-8"?>
<!-- Generator: Adobe Illustrator 19.0.1, SVG Export Plug-In . SVG Version: 6.00 Build 0)  -->
<svg version="1.1" id="Layer_1" xmlns="http://www.w3.org/2000/svg" xmlns:xlink="http://www.w3.org/1999/xlink" x="0px" y="0px"
	 viewBox="0 0 512 512" style="enable-background:new 0 0 512 512;" xml:space="preserve">
<g>
	<path d="M57.8,216c-5.1,0-9.2,4.1-9.2,9.2c0,64.4,61.7,159.5,144.4,193.9h-5.9c-5.1,0-9.2,4.1-9.2,9.2c0,5.1,4.1,9.2,9.2,9.2h129.3
		c5.1,0,9.2-4.2,9.2-9.2c0-4.7-3.5-8.4-8-9c83-34.2,145-129.6,145-194.1c0-5.1-4.1-9.2-9.2-9.2H57.8z"/>
	<path d="M275.9,86.4l170.4-5.9v-8.6L106.8,83.6v8.6l29.3-1c1.4,2.5,2.7,4.9,3.9,7.3h-33.2v8.6h37.2c18.4,44.2,3.8,78.9-10.9,113.5
		l164.7-0.1c14.7-34.6,29.3-69.3,10.8-113.5h134.6v-8.6H304.6c-2.1-4.1-4.3-8.3-7-12.5c-2.8,0-4.2,0-7.1,0c2.7,4.3,4.9,8.4,7,12.5
		h-14.9C280.6,94.6,278.4,90.5,275.9,86.4z M275.6,98.5h-16.5c-1.9-3.7-3.9-7.5-6.3-11.3l16.1-0.6C271.5,90.7,273.6,94.6,275.6,98.5
		z M231.6,98.5h-18.8c-1.6-3.2-3.4-6.5-5.3-9.8l18.4-0.6C228.1,91.7,229.9,95.1,231.6,98.5z M232.9,87.9l13.1-0.5
		c2.3,3.8,4.3,7.5,6.1,11.1h-13.3C237,95,235,91.5,232.9,87.9z M205.8,98.5h-14.9c-1.5-3-3.1-6-4.9-9l14.6-0.5
		C202.5,92.2,204.2,95.4,205.8,98.5z M183.8,98.5h-16.5c-1.4-2.7-2.9-5.4-4.5-8.2l16.1-0.6C180.8,92.7,182.4,95.6,183.8,98.5z
		 M187.8,107.2c17.3,41.5,5.5,74.6-8.1,107.1c-5.8,0.5-11.5,1-17.2,1.7c14-33.1,26.4-66.6,8.8-108.8
		C171.3,107.2,187.8,107.2,187.8,107.2z M194.8,107.2h14.9c17.1,41,5.8,73.8-7.6,105.9c-5.1,0.1-10.2,0.4-15.2,0.7
		C200.5,181.4,212,148.4,194.8,107.2z M216.8,107.2h18.8c17.1,41,5.8,73.8-7.6,105.9c-6.2-0.2-12.5-0.2-18.8-0.1
		C222.7,180.8,233.8,148.1,216.8,107.2z M242.7,107.2H256c17.2,41.4,5.6,74.4-8,106.8c-4.3-0.3-8.7-0.5-13-0.7
		C248.4,181.1,259.8,148.2,242.7,107.2z M263.1,107.2h16.5c17.6,42.3,5,75.9-9,109c-5.2-0.7-10.4-1.2-15.8-1.7
		C268.5,181.9,280.4,148.8,263.1,107.2z M142.9,91l13.1-0.5c1.6,2.7,3,5.4,4.3,8H147C145.7,96.1,144.3,93.5,142.9,91z M150.9,107.2
		h13.3c17.8,42.6,4.9,76.4-9.3,109.8c-4.8,0.7-9.6,1.4-14.3,2.3C155.2,185.1,169.1,150.8,150.9,107.2z M301.5,107.2
		c18.2,43.7,4.2,78-10.3,112.2c-4.6-0.8-9.2-1.6-13.9-2.3c14.2-33.4,27.1-67.2,9.3-109.9C286.6,107.2,301.5,107.2,301.5,107.2z"/>
</g>
</svg>
