<?xml version="1.0" encoding="utf-8"?>
<!-- Generator: Adobe Illustrator 19.0.1, SVG Export Plug-In . SVG Version: 6.00 Build 0)  -->
<svg version="1.1" id="Layer_1" xmlns="http://www.w3.org/2000/svg" xmlns:xlink="http://www.w3.org/1999/xlink" x="0px" y="0px"
	 viewBox="0 0 512 512" style="enable-background:new 0 0 512 512;" xml:space="preserve">
<path d="M210.2,461.1h74.1c0,0-16.3,40.2,42-100.6C483.5,259.9,436.2,171,427.5,46.3c-138.6,18-182,97.9-179.4,223.2
	c34.2-12.9,65.7-32.2,82.1-46.3c-13.5-25.8-21.2-31-45.8-49.2c27.3,5.2,49.6,26.3,59.6,34c7.7-9.4,15.6-35.9,15.6-35.9
	s-24.9-30.1-50.9-46.8c22.3-0.5,46.8,25.4,57.6,30.9c0.5-1.7,6.1-17.6,11.5-30.5c-6.6-11.8-12.4-17.6-26.9-30.3
	c18.1,7,25.5,12.9,31.9,18.1c3.2-6.8,21-37.9,35.3-51.2c-33.8,82.7,29.3,194.3-145.1,262.3c-16.2,46.5-23.6,70.9-23.6,70.9
	s-6.2,0-8.1-0.1l-99.9-267.9H66L210.2,461.1z"/>
</svg>
