<?xml version="1.0" encoding="utf-8"?>
<!-- Generator: Adobe Illustrator 19.0.1, SVG Export Plug-In . SVG Version: 6.00 Build 0)  -->
<svg version="1.1" id="Layer_1" xmlns="http://www.w3.org/2000/svg" xmlns:xlink="http://www.w3.org/1999/xlink" x="0px" y="0px"
	 viewBox="0 0 512 512" style="enable-background:new 0 0 512 512;" xml:space="preserve">
<path d="M310.4,132.7L270,97.4c-9.2,11.9-14.6,26.8-14.4,42.8l53.5-3.6C309.3,135.2,309.8,133.9,310.4,132.7z"/>
<path d="M319.4,124.8l-3.6-53.5c-15.9,2-29.9,9.4-40.5,20.1l40.4,35.2C316.8,125.9,318,125.3,319.4,124.8z"/>
<path d="M331.3,125.6l35.3-40.4c-11.9-9.2-26.8-14.6-42.8-14.4l3.6,53.5C328.8,124.5,330.1,125,331.3,125.6z"/>
<path d="M339.1,134.6l53.5-3.6c-2-15.9-9.4-29.9-20.1-40.5l-35.2,40.4C338.1,132,338.7,133.2,339.1,134.6z"/>
<path d="M339.7,142.6c-0.3,1.4-0.7,2.7-1.3,3.9l40.4,35.3c9.2-11.9,14.6-26.8,14.4-42.8L339.7,142.6z"/>
<path d="M333.1,152.5c-1.1,0.8-2.4,1.4-3.7,1.8l3.6,53.5c15.9-2,30-9.4,40.5-20.1L333.1,152.5z"/>
<g>
	<path d="M131.2,244.6l20.6,181.9c0.2,2.1,0.7,3.5,1.3,4.5c1.1,1.8,4.4,3,8.3,3.9c14.7,3.4,35,4.3,50,4.3l0,0c0,0,0,0,0,0
		c0,0,0,0,0,0l0,0c15,0,35.3-0.9,50-4.3c3.9-0.9,7.2-2.1,8.3-3.9c0.6-1.1,1.1-2.4,1.3-4.5l20.5-181.3
		C264.6,234.9,159.1,235.1,131.2,244.6z"/>
	<path d="M308.6,139.6c-21.7,6.6-59.5,9.7-97.2,9.8c-38.3,0-76.8-3.3-98.2-10.1c16.1-8,57.2-11.3,98.2-11.1c0,0,0,0,0,0c0,0,0,0,0,0
		c10.3,0,20.6,0.1,30.4,0.5v-16.7c-9.6-0.3-19.8-0.5-30.5-0.5c-69.8-0.1-119,7.4-119.4,25.6l36.3,298.7
		c1.6,12.1,13.3,19.9,33.3,23.6c15.5,2.9,34.4,4.5,49.8,4.6l0,0c0,0,0,0,0,0c0,0,0,0,0,0l0,0c15.4-0.1,34.3-1.7,49.8-4.6
		c20-3.7,31.6-11.5,33.3-23.6l36-296.2C330.5,139.6,308.6,139.6,308.6,139.6z M278.7,429.3c-0.8,6.4-3.7,7.9-9.3,10.1
		c-12.2,4.8-36.7,7.2-57.8,7.4c-0.1,0-0.2,0-0.3,0c-0.1,0-0.2,0-0.3,0c-21.1-0.2-45.5-2.6-57.7-7.4c-5.6-2.1-8.4-3.7-9.3-10.1
		l-33-273.7c33.1,7.2,66.5,11.2,100.3,11.3l0,0c0,0,0,0,0,0c0,0,0,0,0,0l0,0c33.8-0.2,67.2-4.1,100.3-11.3L278.7,429.3z"/>
</g>
<path d="M330.5,139.6c0.1-2.9-2.5-6.2-8.5-6.2c-6,0-7.9,5-13.4,6.2c0,2.2,5.1,3.5,11.1,3.5C325.7,143.1,330.3,141.8,330.5,139.6z"/>
<path d="M325.8,46c-51.7-0.8-94.2,40.5-95,92.2c-0.1,7.1,0.6,13.9,2,20.6h17c-1.7-6.5-2.5-13.3-2.4-20.3
	c0.6-42.5,35.6-76.4,78.1-75.8c42.5,0.6,76.4,35.6,75.8,78.1c-0.6,42.5-35.6,76.4-78.1,75.8c-3.7-0.1-7.4-0.4-11-1v16.8
	c3.5,0.5,7.1,0.7,10.7,0.8c51.7,0.8,94.2-40.5,95-92.2C418.7,89.3,377.5,46.8,325.8,46z"/>
</svg>
