<?xml version="1.0" encoding="utf-8"?>
<!-- Generator: Adobe Illustrator 19.0.1, SVG Export Plug-In . SVG Version: 6.00 Build 0)  -->
<svg version="1.1" id="Layer_1" xmlns="http://www.w3.org/2000/svg" xmlns:xlink="http://www.w3.org/1999/xlink" x="0px" y="0px"
	 viewBox="0 0 512 512" style="enable-background:new 0 0 512 512;" xml:space="preserve">
<path d="M58.4,270.2c-0.6-1.8-1.1-3.6-1.5-5.4c2.6,24.2,10.2,46.7,22.7,67.6c7.3,12.3,16.3,24,27.1,35.1
	c22.6,23.5,48.7,40.2,78.2,50.2c18,6.1,37.2,9.7,57.7,10.7c31.6,1.6,60.8-3,87.6-13.8c-21.5,0.4-42.6-0.5-63.3-2.7
	c-66.5-7-117.2-25.8-151.9-56.3h-0.1c0,0-0.1-0.1-0.1-0.1c0,0,0,0-0.1-0.1C86.1,328.1,67.3,299.6,58.4,270.2z M351,156.6
	c15.9,15,31,31.3,45.4,48.8c7.1,8.7,12.7,15.9,16.8,21.5c0,0,0,0.1,0.1,0.1l7.5,11.4c6.1,9.2,11.6,18.1,16.7,26.5
	c0,0.1,0.1,0.2,0.1,0.2c2.8,4.7,5.4,9,7.7,13.1c2.3,4,4.3,7.7,6.1,11.1c6.7,12.7,10.1,21.6,10.4,26.6c0,0.2,0,0.4,0.1,0.6
	c1.9,8.4,0.9,14.9-2.8,19.4l-0.1,0.1c-4.1,4.4-11.2,7-21.2,7.5h-0.1c-2.9,0.2-6,0.2-9.2,0c-2.9-0.2-5.9-0.4-9.1-0.9
	c-1.6-0.2-3.2-0.5-4.9-0.8h0l-10.9-2.3c-44.9-14-77.2-23.7-97-29.2c-16-25.9-32.1-53.2-48-82c-32-57.7-48-94-48-108.9
	c0-1-0.3-1.8-1-2.5c-0.7-0.7-1.5-1-2.4-1c-1,0-1.8,0.3-2.5,1c-0.7,0.7-1,1.5-1,2.4v0.1c-0.4,15.5,15.9,52.9,48.9,112.3
	c16.2,29.2,32.5,57,48.8,83.2v0.1c0.1,0.1,0.1,0.2,0.1,0.2c0,0.1,0.1,0.1,0.1,0.2c12,18.2,24,40.4,36.1,66.6
	c3.6,8,6.8,15.3,9.6,21.9c0,0,0,0.1,0.1,0.1c0,0.1,0.1,0.2,0.1,0.3c1.6,4.1,1.2,7.6-1.5,10.6c-0.9,1-1.9,1.8-3.1,2.5l-0.7,0.3
	c-0.3,0.1-0.6,0.3-0.9,0.4c-1.4,0.6-2.8,1.2-4.1,1.8c-26.5,11.3-55.2,16.7-86.2,16.2c-2.9-0.1-5.9-0.2-8.8-0.3
	c-19.3-1-37.6-4.2-54.7-9.5c-32.9-10.1-61.8-28.2-86.7-54c-19.1-19.8-33-41.3-41.8-64.5c-5.3-12.4-8.7-25.3-10.4-38.5
	c-0.8-5.9-1.2-11.8-1.3-17.7c-0.3-21.1,3.9-42.8,12.6-65.2c2.3-6.9,5.1-13.7,8.5-20.3c3.4-8.5,8.7-16.9,15.8-25.2
	c0.3-0.3,0.6-0.7,0.8-1c1.8-2.3,3.6-4.3,5.2-6c0.5-0.3,1.1-0.7,1.6-1c13-11.8,28.1-18.2,45.4-19.1c-1.2,1.7-2.3,3.5-3.5,5.4v0.1
	c-6.6,11.3-9.9,22.9-10,34.8c0,0.8,0.3,1.5,0.8,2.1c0.6,0.6,1.2,0.9,2,0.9c0.8,0,1.5-0.3,2.1-0.8c0.6-0.6,0.9-1.2,0.9-2
	c0.1-10.9,3.2-21.5,9.2-31.9v0.1c1.5-2.5,3-4.8,4.5-6.8l0,0c1.6-2.1,3.1-4,4.7-5.6c0.4-0.4,0.7-0.9,0.8-1.4l1.4-1.6
	c5.4-5.7,10.8-10.7,16.3-15.2c16.7-13.7,30.3-19.4,40.8-17h0.1c0.1,0,0.3,0,0.4,0.1h-0.1C252.7,81.4,300.6,108.5,351,156.6z"/>
</svg>
