<?xml version="1.0" encoding="utf-8"?>
<!-- Generator: Adobe Illustrator 19.0.1, SVG Export Plug-In . SVG Version: 6.00 Build 0)  -->
<svg version="1.1" id="Layer_1" xmlns="http://www.w3.org/2000/svg" xmlns:xlink="http://www.w3.org/1999/xlink" x="0px" y="0px"
	 viewBox="0 0 512 512" style="enable-background:new 0 0 512 512;" xml:space="preserve">
<g>
	<path d="M57.4,236c-5.1,0-9.3,4.1-9.3,9.3c0,64.6,61.8,159.8,144.7,194.3h-5.9c-5.1,0-9.3,4.1-9.3,9.3c0,5.1,4.1,9.3,9.3,9.3h129.5
		c5.1,0,9.3-4.2,9.3-9.3c0-4.7-3.5-8.4-8-9c83.2-34.3,145.2-129.8,145.2-194.5c0-5.1-4.1-9.3-9.3-9.3H57.4z"/>
	<path d="M125.4,239h90.1c1.9-13.2-1.3-27.1-9.4-38l49.5-60.9l49.5,60.9c-8.1,10.9-11.3,24.8-9.4,38h90.1h20.6
		c-0.8-1.7-1.6-3.3-2.6-4.9c-0.3-0.8-0.6-1.6-1.2-2.3L375.7,199c-8.1-9.9-19.3-15.9-31.7-16.7c-9.3-0.6-18.3,1.7-26.1,6.6l-51-62.8
		l54.8-67.3c3-3.8,2.5-9.3-1.3-12.3c-3.8-3-9.3-2.5-12.3,1.3l-52.5,64.5l-52.5-64.5c-3-3.8-8.6-4.3-12.3-1.3
		c-3.8,3-4.3,8.5-1.3,12.3l54.8,67.3l-51,62.8c-7.8-4.9-16.9-7.3-26.1-6.6c-12.4,0.8-23.6,6.7-31.7,16.7l-26.7,32.9
		c-0.6,0.7-0.9,1.5-1.2,2.3c-1,1.6-1.8,3.2-2.6,4.9C104.8,239,125.4,239,125.4,239z"/>
</g>
</svg>
