<?xml version="1.0" encoding="utf-8"?>
<!-- Generator: Adobe Illustrator 19.0.1, SVG Export Plug-In . SVG Version: 6.00 Build 0)  -->
<svg version="1.1" id="Layer_1" xmlns="http://www.w3.org/2000/svg" xmlns:xlink="http://www.w3.org/1999/xlink" x="0px" y="0px"
	 viewBox="0 0 512 512" style="enable-background:new 0 0 512 512;" xml:space="preserve">
<path d="M445,301.2c0,0-40.7-114.3-182-152.2c0,0-136.4-46.7-211.5,77.9c0,0-16,23.9,6.2,18.2c0,0,9.1-4.9,27.7-8.7
	c-1.5,11.3-3.3,33.1,1.3,57.6c0.2,1,4.3,24.5,27,30.1l0.6,0.1c0.5,0.1,55,5.1,99.5,14.3c0.6,0.1,57.4,13.7,77.8,22.8
	c1.5,0.7,38.3,16.1,65.7,16.1c11.4,0,19.9-2.7,25.2-8.1c2-1.4,7.6-6.4,13.7-20c15.4,2.7,31.3,2.5,46.5-2.6c0,0,17-4.1,24.9-4.5
	C467.5,342.4,454.7,325.2,445,301.2z M414.1,261l14,19.4c0,0-54.7-49-142-11.6C286.1,268.8,338.5,222.7,414.1,261z M388.1,227.5
	c0,0-63.5-33.9-140.3,16.1c0,0,40.4-51.8,124.1-30.2L388.1,227.5z M319,177.3l18.4,10.8c0,0-75.6-25.9-135.2,41.3
	C202.2,229.4,234.8,162.7,319,177.3z M256.9,153.5l23.2,6.5c0,0-76.5-8.7-123.9,61.7C156.3,221.8,171.6,159.5,256.9,153.5z
	 M194.8,144.9l24.8,2.2c0,0-58.9,1.1-105.7,74.2C114,221.2,136.5,154.1,194.8,144.9z M120.3,165.4c0,0,20.2-9.1,22.1-9.2
	c0,0-40.6,19.8-63.1,72.7C79.3,228.9,85.2,188.1,120.3,165.4z M377.5,362.4l-1,0.8c-3.6,3.8-10,5.8-19.2,5.8
	c-25.7,0-62-15.3-62.2-15.4c-21-9.4-76.9-22.7-79.4-23.3c-43.2-8.9-95.5-14-100.2-14.4c-16.8-4.4-20.1-22.3-20.3-23.2
	c-4.8-25.4-2.3-48.3-0.8-57.7c14-2.2,32.1-3.5,54.5-2.2c0,0,72.1,2.4,156.9,72.8c0,0,37.5,31.4,81.6,42.2
	C382,359.2,377.6,362.4,377.5,362.4z M316.7,298.4c0,0,54.8-25.5,121.7,11.2l10.3,17.3C448.6,326.9,384.7,285.7,316.7,298.4z"/>
</svg>
