<?xml version="1.0" encoding="utf-8"?>
<!-- Generator: Adobe Illustrator 19.0.1, SVG Export Plug-In . SVG Version: 6.00 Build 0)  -->
<svg version="1.1" id="Layer_1" xmlns="http://www.w3.org/2000/svg" xmlns:xlink="http://www.w3.org/1999/xlink" x="0px" y="0px"
	 viewBox="0 0 512 512" style="enable-background:new 0 0 512 512;" xml:space="preserve">
<path d="M443.8,312.4c0,0-40.7-114.3-182-152.2c0,0-136.4-46.7-211.5,77.9c0,0-16,23.9,6.2,18.2c0,0,9.1-4.9,27.7-8.7
	c80.1,7.2,130.1,0,220.4,69.1c15.4,2.7,121.6,46.5,136.8,41.4c0,0,17-4.1,24.9-4.5C466.3,353.6,453.5,336.4,443.8,312.4z
	 M412.9,276.2l14,19.4c0,0-54.7-49-142-11.6C284.9,284,337.3,237.8,412.9,276.2z M387,242.7c0,0-63.5-33.9-140.3,16.1
	c0,0,40.4-51.8,124.1-30.2L387,242.7z M317.8,192.5l18.4,10.8c0,0-75.6-25.9-135.2,41.3C201,244.6,233.6,177.9,317.8,192.5z
	 M255.7,168.7l23.2,6.5c0,0-76.5-8.7-123.9,61.7C155.1,236.9,170.4,174.7,255.7,168.7z M193.6,160.1l24.8,2.2
	c0,0-58.9,1.1-105.7,74.2C112.8,236.4,135.3,169.3,193.6,160.1z M119.1,180.6c0,0,20.2-9.1,22.1-9.2c0,0-40.6,19.8-63.1,72.7
	C78.1,244.1,84,203.3,119.1,180.6z M84.2,251.7 M315.5,313.6c0,0,54.8-25.5,121.7,11.2l10.3,17.3
	C447.4,342.1,383.5,300.9,315.5,313.6z"/>
</svg>
