<?xml version="1.0" encoding="utf-8"?>
<!-- Generator: Adobe Illustrator 19.0.1, SVG Export Plug-In . SVG Version: 6.00 Build 0)  -->
<svg version="1.1" id="Layer_1" xmlns="http://www.w3.org/2000/svg" xmlns:xlink="http://www.w3.org/1999/xlink" x="0px" y="0px"
	 viewBox="0 0 512 512" style="enable-background:new 0 0 512 512;" xml:space="preserve">
<g>
	<g>
		<path d="M460.9,245.7c0,7.5-0.5,15,0,22.5c1.4,29.5-10.3,53.8-30,75.4c-35.6,38.4-81.4,58.5-131.5,67.4
			c-62.7,11.2-125,6.6-183.9-17.8c-17.8-7.5-34.2-18.7-51-29.5c-9.4-6.1-15.4-15-14.5-27.6c0.9-11.7-0.5-23.4-0.9-35.1
			c-0.5-14,4.7-24.3,17.8-30c11.2-5.1,23.4-8.9,34.6-14c7-2.8,13.6-6.6,19.7-10.8c7.5-5.1,9.8-13.1,8-22c-1.4-6.6-2.3-13.1-4.2-19.7
			c-4.2-18.3,0-34.2,11.7-48.2c24.8-31.4,57.6-49.1,95.5-57.1c68.3-14,132.5-4.2,189.6,37.4c25.7,18.7,39.8,45.9,39.3,78.6
			C460.4,225.6,460.9,235.4,460.9,245.7z M225,359.9c9.8,0,22-2.3,33.7-4.2c22.9-4.2,46.3-7.5,68.3-14.5
			c44.5-14,81.4-38.8,103.9-81.4c17.8-33.7,16.8-70.2-5.6-94.1c-11.7-12.6-25.7-23.9-41.2-31.4c-39.8-20.6-82.8-26.2-127.3-21.5
			c-40.7,4.2-75.8,20.6-103.9,50.5c-10.8,11.7-15.4,24.8-11.2,40.7c1.4,5.1,2.3,10.3,3.3,15.4c3.7,20.1-1.9,34.2-19.2,44.5
			c-9.4,5.6-19.7,9.4-29.5,14c-8.4,4.2-16.8,8.4-24.8,12.6c-5.1,1.4-6.6,6.1-3.7,11.2c1.9,4.7,4.2,9.8,8,12.6
			c11.2,8.4,22,17.3,34.6,22.5C145.4,352.9,183.8,360.9,225,359.9z"/>
		<path d="M213.3,337c-30-1.9-62.3-4.2-92.2-18.3c-4.2-1.9-8.4-3.7-11.2-7c-4.2-5.1-10.3-11.2-9.8-16.8c0.5-4.7,8.4-9.4,14-12.2
			c9.4-4.7,19.2-6.6,28.6-10.8c27.6-12.6,37.9-37.4,27.6-66c-7-19.7-3.7-30.4,14-41.7c8.4-5.1,17.8-9.4,26.7-13.6
			c40.7-18.7,83.8-22,126.8-11.2c18.3,4.7,36,13.1,52,23.4c28.6,18.7,36.5,54.8,22,86.6c-15.4,34.2-43.1,55.7-77.7,69.3
			C295.7,333.7,256.4,337.5,213.3,337z M335.5,213c4.7,0.5,8.4,2.3,12.2,4.7c5.6,3.7,11.2,8,16.4,12.2c4.7,3.7,20.6,5.1,23.9,1.4
			c2.3-2.8,1.9-4.2,1.4-6.1c-0.5-1.9-2.8-5.1-8.4-5.6c-5.6-0.5-16.8-0.5-22-2.3c-16.4-6.1-23.9-18.3-22.5-36
			c0.5-4.2,2.3-8.9,2.3-13.1c0-6.1-5.6-8-6.6-8c-3.7,0.5-2.8,0.5-5.6,2.3c-1.4,0.9-3.3,8-2.8,10.3c0.9,7,2.8,13.6,3.3,20.6
			c0.9,9.4-2.8,16.4-11.7,20.6c-6.1,2.8-12.2,4.7-18.3,8c-2.3,1.4-5.1,1.9-4.7,7c0,2.3,3.7,5.6,6.1,5.6c3.3,0.5,7-0.9,9.8-2.8
			c5.1-3.7,8.9-8.4,14-11.7C326.1,216.2,328.5,212.5,335.5,213z"/>
	</g>
</g>
</svg>
