<?xml version="1.0" encoding="utf-8"?>
<!-- Generator: Adobe Illustrator 19.0.1, SVG Export Plug-In . SVG Version: 6.00 Build 0)  -->
<svg version="1.1" id="Layer_1" xmlns="http://www.w3.org/2000/svg" xmlns:xlink="http://www.w3.org/1999/xlink" x="0px" y="0px"
	 viewBox="0 0 512 512" style="enable-background:new 0 0 512 512;" xml:space="preserve">
<path d="M210.6,170.1c0,0,27.8-27.8,92,28.6c0,0,22.4-18.2,9.5-46.8c0,0-8.3-5-3.3-10.8c0,0-21.1,0.4-12.4-12
	c0,0-27.8-1.7-15.3-17.4c0,0-15.7,0.8-17.8-12c-2.1-12.8,24.4-11.2,24.4-11.2S266,71.3,272.7,58.2c7.5-14.5,23.6-0.4,23.6-0.4
	s-7.9-7.9,0-10.8c9-3.3,12.4,14.1,12.4,14.1s-0.4-7,6.6-7c7,0,11.6,2.9,10.8,17c0,0,18.2-14.1,21.5,29c0,0,7,21.1-4.6,62.1
	c0,0,20.3-26.1,22.4-38.5s7-24.4,18.2-19.5c0,0,0.4-29,18.6-19.9c0,0-2.1-15.3,8.3-20.7c10.4-5.4,12.8,7,12.8,7s5.8-13.7,22-5.4
	c16.2,8.3,1.7,25.7,1.7,25.7s8.7,2.5,5.4,12.4c-3.3,9.9-20.3,8.7-20.3,8.7s9.5,7.5,5.4,14.5c-4.1,7-28.6,8.7-28.6,8.7s4.6,5-6.6,9.5
	c-11.2,4.6-38.5,9.5-47.6,24.9c0,0,55.1-19.5,58,0.4c0,0,32.3,0.8,33.6,11.2c1.2,10.4-6.2,5.8-6.2,5.8s23.6,7.9,23.6,16.2
	s-9.9,2.5-9.9,2.5s10.4,5,8.3,12.4s-7.9-0.8-7.9-0.8s7.9,23.2-7,24.9c-14.9,1.7-24.4-24.4-24.4-24.4s9.1,32.3-7.9,32.3
	c-17,0-11.2-17.4-11.2-17.4s-0.8,5.8-10.8,2.5c-9.9-3.3-4.6-22.8-4.6-22.8s-7.9,17.4-17-7c0,0-5.4-10.8-25.7-6.2
	c-20.3,4.6-28.6,13.3-28.6,13.3s55.9,63.8,28.2,89.9l-29,20.3c0,0-12.4-27.7-33.6-27.7c0,0,14.5,23.6,12.8,36
	c-1.7,12.4-8.7,15.7-18.2,22.4c-9.5,6.6-31.7,19.5-31.7,19.5s-17.8,4.6-29.8-8.7s-24.4-20.7-33.6-21.1c0,0,39.8,34.2,11.8,54.1
	c-13.9,9.9-107.3,58.2-107.3,58.2s-25.7,13.3-34.8,6.6c-9.1-6.6,9.9-37.7,9.9-37.7l70.4-133c0,0,6.2-14.1,26.9-12.2
	c24.6,2.3,38.1,23.4,38.1,23.4s9.5-19.7-15.7-37.1c-16.9-11.7-30.7-13.9-21.5-25.9C169.2,227.3,210.6,170.1,210.6,170.1z"/>
</svg>
