<?xml version="1.0" encoding="utf-8"?>
<!-- Generator: Adobe Illustrator 19.0.1, SVG Export Plug-In . SVG Version: 6.00 Build 0)  -->
<svg version="1.1" id="Layer_1" xmlns="http://www.w3.org/2000/svg" xmlns:xlink="http://www.w3.org/1999/xlink" x="0px" y="0px"
	 viewBox="0 0 512 512" style="enable-background:new 0 0 512 512;" xml:space="preserve">
<style type="text/css">
	.st0{fill:#231F20;}
</style>
<path class="st0" d="M196.3,194.8c-23.2,0-42.4,18.8-42.6,42v41.3h22.6l0.2-43.2c1.1-10.1,9.7-17.9,19.8-17.9
	c11.2,0,20.1,8.9,20.1,20.1c0,13.3,0,27.7,0.2,40.9h22.3v-40.9C238.9,213.9,219.8,194.8,196.3,194.8z"/>
<path class="st0" d="M127.6,162.4c-6.5,0-11.7,5.1-11.7,11.7c0,6.4,5.1,11.7,11.7,11.7c6.4,0,11.7-5.1,11.7-11.7
	C139.2,167.5,134.1,162.4,127.6,162.4z"/>
<rect x="116.2" y="195.6" class="st0" width="22.7" height="82.5"/>
<path class="st0" d="M74.9,217.8c5.5,0,10.5,2.4,14.1,6.1c0,0,9.7-9.1,15.6-15.9c-7.7-7.4-18-12.3-29.7-12.3c-23.2,0-42,18.8-42,42
	c0,19.8,12.7,36,32.4,40.7c8.3,2,13.9,1.8,22.1-0.6c7.4-2.3,12.1-5.5,17-10.1c0.2-0.9-15-15.8-15-15.8c-3.8,3.3-9.2,5.8-14.5,5.8
	c-11.1,0-20-8.9-20-19.8C54.9,226.8,63.8,217.8,74.9,217.8z"/>
<path class="st0" d="M73.9,289.2c-6.4,0-11.7,5.1-11.7,11.7c0,6.5,5.1,11.7,11.7,11.7c6.4,0,11.7-5.3,11.7-11.7
	C85.6,294.5,80.5,289.2,73.9,289.2z"/>
<path class="st0" d="M291.4,312.9h-12v-6.1l2.3-1.1l-5.1-1.7v8.8l-11.7-0.2l-2.9-2v21.4l2.9-2v-1.7h11.7v17.6l2.9-2v-15.6h12.1v3.3
	l2.9-2v-14.8l2.1-0.5l-3.9-3.5L291.4,312.9z M276.6,327h-11.7v-12.6h11.7V327z M291.6,327h-12.1v-12.6h12.1V327z"/>
<path class="st0" d="M356.9,319.3L352,317v0.3c0,0-0.9,4.2-1.8,6.5c-0.6,1.5-1.5,3.9-2.6,5.8c-1.1,1.7-4.5,6.7-4.5,6.7v0.2l-0.2,0.3
	l-0.2,0.3l0.2,0.5c0.3,0.3,0.6,0.2,0.8,0.2l0.3-0.2h0.2c0,0,2.1-2.6,3.3-4.1c1.2-1.7,2.3-3.2,3.6-5.3c1.2-2,2.3-4.5,2.9-5.6
	c0.3-0.6,0.5-1.1,0.6-1.4c0.2-0.3,0.2-0.5,0.2-0.6l0.6-0.2c0.5,0,0.9-0.3,1.4-0.8L356.9,319.3z"/>
<path class="st0" d="M363.1,307.9v29.2v0.6c0,0.2,0,1.8-0.6,2.4c-0.2,0.2-0.5,0.3-0.9,0.3c-0.5,0-1.1,0-1.7,0
	c-1.4,0-2.6-0.2-3.2-0.2c-0.3,0-0.5,0-0.6,0c-0.2,0-0.5,0.2-0.5,0.5c0,0.2,0.2,0.3,0.3,0.5l0.5,0.3c0.5,0.2,0.9,0.2,1.4,0.3
	c0.2,0,0.6,0,1.1,0.2c0.5,0.2,0.9,0.2,1.1,0.3c0.3,0.2,0.5,0.2,0.5,0.5v0.5c0,0.2,0,0.5,0.2,0.8c0.2,0.6,0.9,0.9,2.1,0.8
	c2.6-0.3,3-2.9,3.2-3.8c0-0.8,0-1.8,0-2.4l0.2-29.7l2.4-1.5l-5.3-1.1V307.9z"/>
<path class="st0" d="M378.5,323.1c-1.1-1.1-3.5-3.2-4.5-4.1c-0.9-0.8-1.4-0.9-1.5-0.9h-0.2h-0.2c-0.2,0-0.5,0-0.6,0.3v0.6l0.3,0.5
	l0.3,0.3l0.2-0.2c0,0,2.1,2,3.2,3.2c1.7,2,3.5,5.3,4.1,7c0.2,0.6,0.3,1.2,0.5,1.7c0.2,0.5,0.2,0.9,0.5,1.4c0.5,0.9,1.7,1.1,2.3,0.8
	l0.3-0.2l0.3-0.3c0.3-0.3,0.3-0.6,0.3-1.4c0-1.5-0.2-2.1-1.2-3.8C381.4,326.3,379.7,324.3,378.5,323.1z"/>
<path class="st0" d="M323.1,326.9h-0.5h-0.2h-0.2l-0.2,0.5l0.3,0.3l0.3,0.2c0.2,0.2,0.3,0.2,0.5,0.5c0.3,0.3,0.6,0.6,1.1,1.2
	c0.6,0.6,0.9,1.1,1.1,1.4c0.3,0.5,0.5,0.8,0.6,1.1c0.3,0.6,0.8,1.2,1.5,1.1c0.8-0.2,1.1-0.8,1.1-1.7c0-1.1-0.8-1.8-2.3-3
	C324.9,327.2,323.8,327,323.1,326.9z"/>
<polygon class="st0" points="328.7,334.4 320.7,334.4 320.7,324.6 330.4,324.6 330.4,323.2 327.5,321 325.8,323.1 320.4,323.1 
	320.4,315.4 332.5,315.4 332.5,313.8 332.3,313.8 329.3,311.7 327.8,313.5 327.5,313.8 308.1,313.8 308.1,315.4 317.8,315.4 
	317.8,323.1 309.9,323.1 309.9,324.6 317.8,324.6 317.8,334.4 307.8,334.4 307.8,336 317.8,336 317.8,336.1 320.7,336 320.7,336 
	334.3,336 334.3,334.6 331,331.9 "/>
<path class="st0" d="M336,305.5l-1.5,1.8h-29.5v-0.2l-2.9-2v2.3v1.1v38h0.5l2.4-1.7v-2h30.1v3.3l2.9-2l-0.2-35.3l1.8-0.5L336,305.5z
	 M305.1,341.4v-32.6h30l0.2,32.6H305.1z"/>
<path class="st0" d="M388.8,323.7l-0.3,0.2c-0.2,0-0.5,0.2-0.5,0.5v0.2l0.2,0.3c0.2,0.2,0.3,0.2,0.6,0.2h0.2h0.2l0.3-0.2
	c0.5-0.2,2.7-1.1,5.5-2.4c2.7-1.4,4.2-2.6,6.2-4.5c1.7-1.7,3.6-3.8,3.9-4.2l2.4-0.3l-3.3-3l-1.4,0.9H400v-2.3h8.5v-1.2l-2.9-2.3
	l-1.8,2.1h-3.6v-1.4l1.7-0.9l-4.5-1.4v7.6h-1.5c0.6-0.5,1.2-1.1,1.2-1.1l-3.5-0.6c0,0-0.6,1.8-1.1,3.2c-0.6,1.5-2.6,5-4.7,7v0.2
	l-0.2,0.2c-0.2,0.2-0.2,0.3,0,0.6l0.5,0.2l0.3-0.2l0.3-0.2l0.2-0.2c0,0,0.8-0.6,1.7-1.5c0.9-0.9,2-2,2.4-2.7l0.3-0.3l0.6,0.3
	c0.3,0.2,0.6,0.3,0.9,0.6c0.5,0.5,0.6,0.8,0.8,1.1c0.2,0.3,0.2,0.5,0.2,0.5c0.2,0.9,0.6,1.4,1.2,1.4c-0.6,0.5-1.1,0.8-1.7,0.8
	C392.9,322,389,323.5,388.8,323.7z M396.7,316.4c-0.5-0.3-1.2-0.6-1.8-0.8c-0.3-0.2-0.9-0.3-1.2-0.5c0.5-0.6,0.8-1.4,1.1-2h8.2
	c-0.2,0.3-0.3,0.6-0.8,1.1c-0.3,0.5-0.8,0.9-1.1,1.4c-0.3,0.5-1.5,1.7-2.9,2.9c0-0.2,0-0.6-0.2-0.9
	C397.8,317,397.3,316.7,396.7,316.4z"/>
<path class="st0" d="M416.2,340.5l-0.6-0.3l6.2-3.5l2.4,0.2l-3.2-3.5l-6.7,6.4c-1.7-0.9-3.5-2.1-4.2-2.7c-0.5-0.5-0.8-0.9-1.1-1.2
	h5.6v1.8l2.9-1.4v-9.5h2.3l-3.8-2.4l-0.6-0.5l-0.9,1.4h-5.1v-2.6l2-0.8l-4.7-1.4v4.7h-5.1l-0.5-0.9c1.5-1.1,2.7-2.1,3.6-2.9
	c0.8-0.8,1.8-1.8,2.6-2.7c0.5-0.6,0.9-1.1,1.2-1.4c0.3,0.3,1.4,1.5,3.2,3.2c1.2,1.2,2.4,2.3,3.8,3.2c0,0,2.3,1.5,3.2,2
	c2.7,1.5,6.7,3.2,6.8,3l0.2-0.2c0,0,1.2-1.5,2.1-2l0.8-0.2V326c0,0-0.5,0-1.4-0.2c-0.9-0.2-2.1-0.5-3.6-1.1c-3-1.2-7.1-3.2-8.6-4.2
	c-0.8-0.5-1.4-1.1-2-1.5l1.5-0.8c0,0,1.8-0.9,4.4-2.7c0.8,0.8,1.2,1.4,1.8,1.8c0.6,0.6,1.2,1.2,2,2.1c1.4,1.7,2.1,2.1,2.9,2
	c0.6-0.2,1.2-0.6,1.2-1.5c0-1.4-0.6-1.8-3.6-4.4c-0.2-0.2-0.5-0.3-0.6-0.5c-0.3-0.2-0.5-0.3-0.8-0.5c-0.3-0.2-0.6-0.5-0.9-0.6
	c3-2.4,4.1-3.8,4.4-4.2l2-0.3l-3.3-3.2l-1.1,1.1h-12.6v1.5h12.1l-1.8,2.4l-1.7,1.5c-0.9-0.3-1.7-0.5-2.9-1.1
	c-0.9-0.5-1.7-0.8-2.4-0.9c-1.1-0.3-1.7-0.5-1.8-0.5c-0.5-0.2-0.8,0.2-0.8,0.5l0.2,0.5l0.3,0.3l0.5,0.3l2.3,1.1
	c1.5,0.8,2,1.1,2.7,1.5l-0.8,0.6l-3.3,2.4l-1.1,0.3l-0.6-0.6c-0.5-0.5-0.8-0.9-0.9-1.2v-0.2h1.2l-0.2-1.1l-3.8-1.2
	c0,0-0.5,0.9-1.2,2c-0.8,0.9-1.8,2.3-3,3.5c-0.6,0.5-1.4,1.2-2.1,2c-0.8,0.8-1.7,1.5-2.6,2.3c-2.3,1.8-5,3.5-6.5,4.2
	c-2.9,1.5-3.8,2-3.8,2v0.2l-0.2,0.2v0.6l0.3,0.3h0.3h0.3l0.6-0.2c3.6-1.4,4.5-2,8-3.9c0.6-0.3,0.9-0.6,1.2-0.9v15.8l-7.7,0.5
	l2.6,4.4l0.6-1.2c0.2-0.6,0.2-0.8,0.9-0.9c0.9-0.2,2.3-0.3,5.1-0.9l6.1-1.2l3.8-0.6l0.6-1.1l-8.9,1.1v-5.8h5.8l0.3,0.3
	c0.3,0.5,0.6,0.9,1.2,1.4c0.6,0.6,1.4,1.4,2.9,2.6c2.9,2.6,6.2,3.9,9.1,4.8c2.9,0.8,4.7,0.9,4.7,0.9v-0.2c0.5-0.5,0.8-0.6,0.9-0.9
	c0.2-0.2,0.5-0.3,0.8-0.6c0.5-0.3,1.7-1.1,1.7-1.1s-2.3-0.2-3-0.3C424,342.3,418.2,341.4,416.2,340.5z M414.3,326.7l0.2,0.2v2.7
	h-12.9l-0.2-2.9H414.3z M401.5,334.3v-3.2h12.9v3.2H401.5z"/>
<path class="st0" d="M450.8,330.1L450.8,330.1l-9.2,0l-2.9-1.5v2v16.1l2.9-2v-3.9h9.4v3.8l2.7-2.4v-10l1.7-0.6l-3.3-2.6L450.8,330.1
	z M451.1,339h-9.4v-7.4h9.4V339z"/>
<path class="st0" d="M473.2,312c0.6-0.2,0.9-0.3,1.2-0.3l0.3-0.2l0.3-0.3l-0.2-0.3l-0.2-0.2l-0.2-0.2l-0.2-0.2
	c-0.5-0.3-1.2-0.9-1.8-1.4c-0.6-0.5-1.5-1.1-1.4-0.8l-0.5,1.4h-7.4l-2.9-1.5v38.5l2.9-0.9v-34.5h6.8l-1.1,3.2l-2,6.7
	c0,0-0.2,0.5-0.2,0.9s0,1.1,0.3,1.5c1.1,1.5,1.5,2.3,3.2,4.5c0.5,0.6,1.4,3.2,1.4,4.4c0,0.5,0,1.2,0,2c0,0.8,0,1.5-0.2,2.1
	c-0.3,2-0.8,2-3.3,1.8c-1.2-0.2-2.1-0.3-2.7-0.3c-0.3,0-0.6,0-0.8,0c-0.3,0.2-0.5,0.3-0.5,0.6v0.2h0.2c0.5,0.2,1.5,0.5,2.6,0.6
	c0.6,0.2,0.8,0.5,0.8,0.6v0.5l0.2,0.6c0.3,0.8,0.9,0.9,3,0.2c2.3-0.9,3.2-2.4,3.5-3.5c0.5-1.1,0.5-2.1,0.3-4.8
	c-0.2-2.9-1.8-5.1-3.8-7.6c-1.5-1.8-2.3-2.7-2.6-3l1.5-3.3L473.2,312z"/>
<polygon class="st0" points="456.1,322 454.6,324.1 449.6,324.1 453.3,317.3 454.1,316.9 454.3,316.9 454.4,316.7 454.7,316.6 
	454.9,316.1 454.7,315.7 454.6,315.5 454.4,315.4 451.1,314.1 449.7,318.8 448.2,324 434.9,324 434.9,325.5 459.4,325.5 459.4,324 
	459.2,324 "/>
<polygon class="st0" points="449.6,306 444.9,304.8 444.9,306.7 444.9,311.9 435.2,311.9 435.2,313.4 458.5,313.4 458.5,311.9 
	458.2,311.9 455.2,309.6 453.5,311.7 447.7,311.7 447.7,306.9 "/>
<path class="st0" d="M439.7,314.1l-0.6-0.3c-0.2-0.2-0.5-0.2-0.6,0.2v0.6l0.3,0.5l0.3,0.6c0.2,0.2,0.3,0.5,0.5,0.8
	c0.6,1.2,0.9,2.1,1.1,3.5c0.2,0.8,0.2,1.7,0.2,2.1c0,0.8,1.2,1.5,2.1,0.9c0.9-0.6,0.6-3.2,0.5-3.8c-0.5-1.1-1.5-2.4-2.7-4.1
	C440.5,314.9,440,314.5,439.7,314.1z"/>
<rect x="341.9" y="200.6" class="st0" width="7.4" height="11.5"/>
<path class="st0" d="M404.3,204.6c1.1-2.3,3.2-3.5,6.2-3.5c1.2,0,2.6,0.2,4.1,0.6v-6.2c-1.5-0.3-3.5-0.5-5.6-0.5
	c-8.3,0-12.4,5-12.4,15.1v9.2h-8.8v5.8h8.6v53h6.8v-53h11.4v-5.8h-11.4v-7.3C403.2,208.7,403.7,206.2,404.3,204.6z"/>
<polygon class="st0" points="367.3,212.1 367.5,200.6 360,200.6 360,212.1 "/>
<path class="st0" d="M262.1,196.6v81.6h6.8V268v-0.2h0.2c1.8,3.8,4.8,6.7,8.8,8.9c3.8,2,7.6,3,11.5,3c9.1,0,15.9-3,20.4-8.9
	c4.1-5.1,6.2-12.6,6.2-21.8c0-8.8-2.1-16.1-6.4-21.7c-4.7-6.2-11.4-9.4-19.8-9.4c-4.2,0-8.3,0.9-12.1,2.9c-3.8,1.8-6.7,4.5-8.8,8
	v-32.3H262.1z M274.2,231.3c3.8-5,8.6-7.4,14.5-7.4c6.8,0,12,2.7,15.4,7.9c3.3,4.7,4.8,11.1,4.7,18.8c-0.2,7.3-2.1,12.9-5.8,17
	c-3.6,4.1-8.5,6.1-14.2,6.1c-6.2,0-11.1-2.4-14.7-7.3c-3.5-4.4-5.1-10.5-5.1-17.7C268.9,241.8,270.7,236,274.2,231.3z"/>
<path class="st0" d="M377.2,278.3v-58.8h-6.8v32c0,6.7-1.5,12-4.8,16.1c-3.2,3.9-7.6,6.1-13,6.1c-10.1,0-15.1-5.1-15.1-15.6v-38.5
	h-6.8v38.6c0,14.4,7,21.7,20.9,21.7c4.5,0.2,8.5-1.1,12-3.3c2-1.2,4.4-3.3,7-6.4v8.2H377.2z"/>
<path class="st0" d="M448.9,218.1c-8.2,0-14.7,3-19.7,9.2c-4.8,5.8-7.3,13.2-7.3,22c0,9.1,2.3,16.5,6.5,21.8
	c4.5,5.9,11.5,8.8,20.4,8.8c13,0,21.5-6.7,25.4-19.7h-7.6c-1.1,4.2-3,7.6-6.4,10c-3,2.3-7,3.5-11.4,3.5c-6.2,0-11.2-2.4-14.7-7
	c-3.3-4.2-5-9.7-5-16.4H475c0-10.5-2.3-18.5-7-23.8C463.5,221,457.1,218.1,448.9,218.1z M429.4,244.8c0.8-5.9,2.7-10.8,5.9-14.5
	c3.5-4.1,8.2-6.2,13.8-6.2c5.9,0,10.6,2,13.9,6.1c3.2,3.8,4.7,8.8,4.7,14.7H429.4z"/>
</svg>
