<?xml version="1.0" encoding="utf-8"?>
<!-- Generator: Adobe Illustrator 19.0.1, SVG Export Plug-In . SVG Version: 6.00 Build 0)  -->
<svg version="1.1" id="Layer_1" xmlns="http://www.w3.org/2000/svg" xmlns:xlink="http://www.w3.org/1999/xlink" x="0px" y="0px"
	 viewBox="0 0 512 512" style="enable-background:new 0 0 512 512;" xml:space="preserve">
<style type="text/css">
	.st0{fill:#231F20;}
</style>
<g>
</g>
<path class="st0" d="M255.8,34.5C134,34.5,35.3,133.2,35.3,255S134,475.5,255.8,475.5S476.3,376.8,476.3,255S377.6,34.5,255.8,34.5z
	 M391.1,172.7h-75.8l37.9-37.9L391.1,172.7z M281.5,81.3l37.9,37.9l-37.9,37.9l-37.9-37.9L281.5,81.3z M148.1,410v-53.6l53.6,53.6
	H148.1z M147.7,345.8v-68.4l38.3,38.8v68.4L147.7,345.8z M186.2,306.3l-75.9-75.9H262L186.2,306.3z M185.7,223.3l75.8-75.9
	l75.8,75.9H185.7z M352.5,228.6l-48.7-48.8h97.5L352.5,228.6z"/>
</svg>
