<?xml version="1.0" encoding="utf-8"?>
<!-- Generator: Adobe Illustrator 19.0.1, SVG Export Plug-In . SVG Version: 6.00 Build 0)  -->
<svg version="1.1" id="Layer_1" xmlns="http://www.w3.org/2000/svg" xmlns:xlink="http://www.w3.org/1999/xlink" x="0px" y="0px"
	 viewBox="0 0 512 512" style="enable-background:new 0 0 512 512;" xml:space="preserve">
<style type="text/css">
	.st0{fill:#231F20;}
</style>
<g>
	<path class="st0" d="M217.9,375.1c-15.3,0-28,12.4-28.1,27.7v27.3h14.9l0.1-28.5c0.7-6.7,6.4-11.8,13.1-11.8
		c7.4,0,13.3,5.9,13.3,13.3c0,8.8,0,18.3,0.1,27H246v-27C246,387.7,233.4,375.1,217.9,375.1z"/>
	<path class="st0" d="M172.5,353.7c-4.3,0-7.7,3.4-7.7,7.7c0,4.2,3.4,7.7,7.7,7.7c4.2,0,7.7-3.4,7.7-7.7
		C180.2,357.1,176.8,353.7,172.5,353.7z"/>
	<rect x="165" y="375.6" class="st0" width="15" height="54.5"/>
	<path class="st0" d="M137.7,390.3c3.6,0,6.9,1.6,9.3,4c0,0,6.4-6,10.3-10.5c-5.1-4.9-11.9-8.1-19.6-8.1
		c-15.3,0-27.7,12.4-27.7,27.7c0,13.1,8.4,23.8,21.4,26.9c5.5,1.3,9.2,1.2,14.6-0.4c4.9-1.5,8-3.6,11.2-6.7
		c0.1-0.6-9.9-10.4-9.9-10.4c-2.5,2.2-6.1,3.8-9.6,3.8c-7.3,0-13.2-5.9-13.2-13.1C124.5,396.2,130.4,390.3,137.7,390.3z"/>
	<path class="st0" d="M137.1,437.4c-4.2,0-7.7,3.4-7.7,7.7s3.4,7.7,7.7,7.7c4.2,0,7.7-3.5,7.7-7.7S141.4,437.4,137.1,437.4z"/>
	<path class="st0" d="M402,180c0-80.1-64.9-145-145-145S112,99.9,112,180s64.9,145,145,145S402,260.1,402,180z M346,125.9h-49.9
		l24.9-24.9L346,125.9z M273.9,65.8l24.9,24.9l-24.9,24.9L249,90.7L273.9,65.8z M186.2,282v-35.3l35.3,35.3H186.2z M185.9,239.7v-45
		l25.2,25.5v45L185.9,239.7z M211.2,213.8l-49.9-49.9h99.8L211.2,213.8z M210.9,159.2l49.9-49.9l49.9,49.9H210.9z M320.6,162.7
		l-32-32.1h64.1L320.6,162.7z"/>
	<path class="st0" d="M280.7,453.1h-7.9v-4l1.5-0.7l-3.4-1.1v5.8l-7.7-0.1l-1.9-1.3v14.1l1.9-1.3v-1.1h7.7V475l1.9-1.3v-10.3h8v2.2
		l1.9-1.3v-9.8l1.4-0.3l-2.6-2.3L280.7,453.1z M270.9,462.4h-7.7v-8.3h7.7V462.4z M280.8,462.4h-8v-8.3h8V462.4z"/>
	<path class="st0" d="M323.9,457.3l-3.2-1.5v0.2c0,0-0.6,2.8-1.2,4.3c-0.4,1-1,2.6-1.7,3.8c-0.7,1.1-3,4.4-3,4.4v0.1l-0.1,0.2
		l-0.1,0.2l0.1,0.3c0.2,0.2,0.4,0.1,0.5,0.1l0.2-0.1h0.1c0,0,1.4-1.7,2.2-2.7c0.8-1.1,1.5-2.1,2.4-3.5c0.8-1.3,1.5-3,1.9-3.7
		c0.2-0.4,0.3-0.7,0.4-0.9c0.1-0.2,0.1-0.3,0.1-0.4l0.4-0.1c0.3,0,0.6-0.2,0.9-0.5L323.9,457.3z"/>
	<path class="st0" d="M328,449.8v19.3v0.4c0,0.1,0,1.2-0.4,1.6c-0.1,0.1-0.3,0.2-0.6,0.2c-0.3,0-0.7,0-1.1,0c-0.9,0-1.7-0.1-2.1-0.1
		c-0.2,0-0.3,0-0.4,0c-0.1,0-0.3,0.1-0.3,0.3c0,0.1,0.1,0.2,0.2,0.3l0.3,0.2c0.3,0.1,0.6,0.1,0.9,0.2c0.1,0,0.4,0,0.7,0.1
		c0.3,0.1,0.6,0.1,0.7,0.2c0.2,0.1,0.3,0.1,0.3,0.3v0.3c0,0.1,0,0.3,0.1,0.5c0.1,0.4,0.6,0.6,1.4,0.5c1.7-0.2,2-1.9,2.1-2.5
		c0-0.5,0-1.2,0-1.6l0.1-19.6l1.6-1l-3.5-0.7V449.8z"/>
	<path class="st0" d="M338.2,459.8c-0.7-0.7-2.3-2.1-3-2.7c-0.6-0.5-0.9-0.6-1-0.6h-0.1H334c-0.1,0-0.3,0-0.4,0.2v0.4l0.2,0.3
		l0.2,0.2l0.1-0.1c0,0,1.4,1.3,2.1,2.1c1.1,1.3,2.3,3.5,2.7,4.6c0.1,0.4,0.2,0.8,0.3,1.1s0.1,0.6,0.3,0.9c0.3,0.6,1.1,0.7,1.5,0.5
		l0.2-0.1l0.2-0.2c0.2-0.2,0.2-0.4,0.2-0.9c0-1-0.1-1.4-0.8-2.5C340.1,461.9,339,460.6,338.2,459.8z"/>
	<path class="st0" d="M301.6,462.3h-0.3h-0.1h-0.1l-0.1,0.3l0.2,0.2l0.2,0.1c0.1,0.1,0.2,0.1,0.3,0.3c0.2,0.2,0.4,0.4,0.7,0.8
		c0.4,0.4,0.6,0.7,0.7,0.9c0.2,0.3,0.3,0.5,0.4,0.7c0.2,0.4,0.5,0.8,1,0.7c0.5-0.1,0.7-0.5,0.7-1.1c0-0.7-0.5-1.2-1.5-2
		C302.8,462.5,302.1,462.4,301.6,462.3z"/>
	<polygon class="st0" points="305.3,467.3 300,467.3 300,460.8 306.4,460.8 306.4,459.9 304.5,458.4 303.4,459.8 299.8,459.8 
		299.8,454.7 307.8,454.7 307.8,453.7 307.7,453.7 305.7,452.3 304.7,453.5 304.5,453.7 291.7,453.7 291.7,454.7 298.1,454.7 
		298.1,459.8 292.9,459.8 292.9,460.8 298.1,460.8 298.1,467.3 291.5,467.3 291.5,468.3 298.1,468.3 298.1,468.4 300,468.3 
		300,468.3 309,468.3 309,467.4 306.8,465.6 	"/>
	<path class="st0" d="M310.1,448.2l-1,1.2h-19.5v-0.1l-1.9-1.3v1.5v0.7v25.1h0.3l1.6-1.1v-1.3h19.9v2.2l1.9-1.3l-0.1-23.3l1.2-0.3
		L310.1,448.2z M289.7,471.9v-21.5h19.8l0.1,21.5H289.7z"/>
	<path class="st0" d="M345,460.2l-0.2,0.1c-0.1,0-0.3,0.1-0.3,0.3v0.1l0.1,0.2c0.1,0.1,0.2,0.1,0.4,0.1h0.1h0.1l0.2-0.1
		c0.3-0.1,1.8-0.7,3.6-1.6c1.8-0.9,2.8-1.7,4.1-3c1.1-1.1,2.4-2.5,2.6-2.8l1.6-0.2l-2.2-2l-0.9,0.6h-1.8v-1.5h5.6v-0.8l-1.9-1.5
		l-1.2,1.4h-2.4v-0.9l1.1-0.6l-3-0.9v5h-1c0.4-0.3,0.8-0.7,0.8-0.7l-2.3-0.4c0,0-0.4,1.2-0.7,2.1c-0.4,1-1.7,3.3-3.1,4.6v0.1
		l-0.1,0.1c-0.1,0.1-0.1,0.2,0,0.4l0.3,0.1l0.2-0.1l0.2-0.1l0.1-0.1c0,0,0.5-0.4,1.1-1c0.6-0.6,1.3-1.3,1.6-1.8l0.2-0.2l0.4,0.2
		c0.2,0.1,0.4,0.2,0.6,0.4c0.3,0.3,0.4,0.5,0.5,0.7c0.1,0.2,0.1,0.3,0.1,0.3c0.1,0.6,0.4,0.9,0.8,0.9c-0.4,0.3-0.7,0.5-1.1,0.5
		C347.7,459.1,345.1,460.1,345,460.2z M350.2,455.4c-0.3-0.2-0.8-0.4-1.2-0.5c-0.2-0.1-0.6-0.2-0.8-0.3c0.3-0.4,0.5-0.9,0.7-1.3h5.4
		c-0.1,0.2-0.2,0.4-0.5,0.7c-0.2,0.3-0.5,0.6-0.7,0.9c-0.2,0.3-1,1.1-1.9,1.9c0-0.1,0-0.4-0.1-0.6
		C350.9,455.8,350.6,455.6,350.2,455.4z"/>
	<path class="st0" d="M363.1,471.3l-0.4-0.2l4.1-2.3l1.6,0.1l-2.1-2.3l-4.4,4.2c-1.1-0.6-2.3-1.4-2.8-1.8c-0.3-0.3-0.5-0.6-0.7-0.8
		h3.7v1.2l1.9-0.9v-6.3h1.5l-2.5-1.6l-0.4-0.3l-0.6,0.9h-3.4v-1.7l1.3-0.5l-3.1-0.9v3.1h-3.4l-0.3-0.6c1-0.7,1.8-1.4,2.4-1.9
		c0.5-0.5,1.2-1.2,1.7-1.8c0.3-0.4,0.6-0.7,0.8-0.9c0.2,0.2,0.9,1,2.1,2.1c0.8,0.8,1.6,1.5,2.5,2.1c0,0,1.5,1,2.1,1.3
		c1.8,1,4.4,2.1,4.5,2l0.1-0.1c0,0,0.8-1,1.4-1.3l0.5-0.1v-0.3c0,0-0.3,0-0.9-0.1c-0.6-0.1-1.4-0.3-2.4-0.7c-2-0.8-4.7-2.1-5.7-2.8
		c-0.5-0.3-0.9-0.7-1.3-1l1-0.5c0,0,1.2-0.6,2.9-1.8c0.5,0.5,0.8,0.9,1.2,1.2c0.4,0.4,0.8,0.8,1.3,1.4c0.9,1.1,1.4,1.4,1.9,1.3
		c0.4-0.1,0.8-0.4,0.8-1c0-0.9-0.4-1.2-2.4-2.9c-0.1-0.1-0.3-0.2-0.4-0.3c-0.2-0.1-0.3-0.2-0.5-0.3c-0.2-0.1-0.4-0.3-0.6-0.4
		c2-1.6,2.7-2.5,2.9-2.8l1.3-0.2l-2.2-2.1l-0.7,0.7h-8.3v1h8l-1.2,1.6l-1.1,1c-0.6-0.2-1.1-0.3-1.9-0.7c-0.6-0.3-1.1-0.5-1.6-0.6
		c-0.7-0.2-1.1-0.3-1.2-0.3c-0.3-0.1-0.5,0.1-0.5,0.3l0.1,0.3l0.2,0.2l0.3,0.2l1.5,0.7c1,0.5,1.3,0.7,1.8,1l-0.5,0.4l-2.2,1.6
		l-0.7,0.2l-0.4-0.4c-0.3-0.3-0.5-0.6-0.6-0.8V455h0.8l-0.1-0.7l-2.5-0.8c0,0-0.3,0.6-0.8,1.3c-0.5,0.6-1.2,1.5-2,2.3
		c-0.4,0.3-0.9,0.8-1.4,1.3s-1.1,1-1.7,1.5c-1.5,1.2-3.3,2.3-4.3,2.8c-1.9,1-2.5,1.3-2.5,1.3v0.1l-0.1,0.1v0.4l0.2,0.2h0.2h0.2
		l0.4-0.1c2.4-0.9,3-1.3,5.3-2.6c0.4-0.2,0.6-0.4,0.8-0.6v10.4l-5.1,0.3l1.7,2.9l0.4-0.8c0.1-0.4,0.1-0.5,0.6-0.6
		c0.6-0.1,1.5-0.2,3.4-0.6l4-0.8l2.5-0.4l0.4-0.7l-5.9,0.7v-3.8h3.8l0.2,0.2c0.2,0.3,0.4,0.6,0.8,0.9c0.4,0.4,0.9,0.9,1.9,1.7
		c1.9,1.7,4.1,2.6,6,3.2c1.9,0.5,3.1,0.6,3.1,0.6v-0.1c0.3-0.3,0.5-0.4,0.6-0.6c0.1-0.1,0.3-0.2,0.5-0.4c0.3-0.2,1.1-0.7,1.1-0.7
		s-1.5-0.1-2-0.2C368.2,472.5,364.4,471.9,363.1,471.3z M361.8,462.2l0.1,0.1v1.8h-8.5l-0.1-1.9H361.8z M353.4,467.2v-2.1h8.5v2.1
		H353.4z"/>
	<path class="st0" d="M385.9,464.4L385.9,464.4l-6.1,0l-1.9-1v1.3v10.6l1.9-1.3v-2.6h6.2v2.5l1.8-1.6v-6.6l1.1-0.4l-2.2-1.7
		L385.9,464.4z M386.1,470.3h-6.2v-4.9h6.2V470.3z"/>
	<path class="st0" d="M400.7,452.5c0.4-0.1,0.6-0.2,0.8-0.2l0.2-0.1l0.2-0.2l-0.1-0.2l-0.1-0.1l-0.1-0.1l-0.1-0.1
		c-0.3-0.2-0.8-0.6-1.2-0.9c-0.4-0.3-1-0.7-0.9-0.5l-0.3,0.9h-4.9l-1.9-1v25.4l1.9-0.6V452h4.5l-0.7,2.1l-1.3,4.4
		c0,0-0.1,0.3-0.1,0.6s0,0.7,0.2,1c0.7,1,1,1.5,2.1,3c0.3,0.4,0.9,2.1,0.9,2.9c0,0.3,0,0.8,0,1.3s0,1-0.1,1.4
		c-0.2,1.3-0.5,1.3-2.2,1.2c-0.8-0.1-1.4-0.2-1.8-0.2c-0.2,0-0.4,0-0.5,0c-0.2,0.1-0.3,0.2-0.3,0.4v0.1h0.1c0.3,0.1,1,0.3,1.7,0.4
		c0.4,0.1,0.5,0.3,0.5,0.4v0.3l0.1,0.4c0.2,0.5,0.6,0.6,2,0.1c1.5-0.6,2.1-1.6,2.3-2.3c0.3-0.7,0.3-1.4,0.2-3.2
		c-0.1-1.9-1.2-3.4-2.5-5c-1-1.2-1.5-1.8-1.7-2l1-2.2L400.7,452.5z"/>
	<polygon class="st0" points="389.4,459.1 388.4,460.5 385.1,460.5 387.6,456 388.1,455.7 388.2,455.7 388.3,455.6 388.5,455.5 
		388.6,455.2 388.5,454.9 388.4,454.8 388.3,454.7 386.1,453.9 385.2,457 384.2,460.4 375.4,460.4 375.4,461.4 391.6,461.4 
		391.6,460.4 391.5,460.4 	"/>
	<polygon class="st0" points="385.1,448.5 382,447.7 382,449 382,452.4 375.6,452.4 375.6,453.4 391,453.4 391,452.4 390.8,452.4 
		388.8,450.9 387.7,452.3 383.9,452.3 383.9,449.1 	"/>
	<path class="st0" d="M378.6,453.9l-0.4-0.2c-0.1-0.1-0.3-0.1-0.4,0.1v0.4l0.2,0.3l0.2,0.4c0.1,0.1,0.2,0.3,0.3,0.5
		c0.4,0.8,0.6,1.4,0.7,2.3c0.1,0.5,0.1,1.1,0.1,1.4c0,0.5,0.8,1,1.4,0.6c0.6-0.4,0.4-2.1,0.3-2.5c-0.3-0.7-1-1.6-1.8-2.7
		C379.1,454.4,378.8,454.1,378.6,453.9z"/>
	<rect x="314" y="378.9" class="st0" width="4.9" height="7.6"/>
	<path class="st0" d="M355.2,381.6c0.7-1.5,2.1-2.3,4.1-2.3c0.8,0,1.7,0.1,2.7,0.4v-4.1c-1-0.2-2.3-0.3-3.7-0.3
		c-5.5,0-8.2,3.3-8.2,10v6.1h-5.8v3.8h5.7v35h4.5v-35h7.5v-3.8h-7.5v-4.8C354.5,384.3,354.8,382.6,355.2,381.6z"/>
	<polygon class="st0" points="330.8,386.5 330.9,378.9 326,378.9 326,386.5 	"/>
	<path class="st0" d="M261.3,376.3v53.9h4.5v-6.8v-0.1h0.1c1.2,2.5,3.2,4.4,5.8,5.9c2.5,1.3,5,2,7.6,2c6,0,10.5-2,13.5-5.9
		c2.7-3.4,4.1-8.3,4.1-14.4c0-5.8-1.4-10.6-4.2-14.3c-3.1-4.1-7.5-6.2-13.1-6.2c-2.8,0-5.5,0.6-8,1.9c-2.5,1.2-4.4,3-5.8,5.3v-21.3
		H261.3z M269.3,399.2c2.5-3.3,5.7-4.9,9.6-4.9c4.5,0,7.9,1.8,10.2,5.2c2.2,3.1,3.2,7.3,3.1,12.4c-0.1,4.8-1.4,8.5-3.8,11.2
		c-2.4,2.7-5.6,4-9.4,4c-4.1,0-7.3-1.6-9.7-4.8c-2.3-2.9-3.4-6.9-3.4-11.7C265.8,406.1,267,402.3,269.3,399.2z"/>
	<path class="st0" d="M337.3,430.2v-38.8h-4.5v21.1c0,4.4-1,7.9-3.2,10.6c-2.1,2.6-5,4-8.6,4c-6.7,0-10-3.4-10-10.3v-25.4h-4.5v25.5
		c0,9.5,4.6,14.3,13.8,14.3c3,0.1,5.6-0.7,7.9-2.2c1.3-0.8,2.9-2.2,4.6-4.2v5.4H337.3z"/>
	<path class="st0" d="M384.7,390.5c-5.4,0-9.7,2-13,6.1c-3.2,3.8-4.8,8.7-4.8,14.5c0,6,1.5,10.9,4.3,14.4c3,3.9,7.6,5.8,13.5,5.8
		c8.6,0,14.2-4.4,16.8-13h-5c-0.7,2.8-2,5-4.2,6.6c-2,1.5-4.6,2.3-7.5,2.3c-4.1,0-7.4-1.6-9.7-4.6c-2.2-2.8-3.3-6.4-3.3-10.8h30.1
		c0-6.9-1.5-12.2-4.6-15.7C394.3,392.4,390.1,390.5,384.7,390.5z M371.8,408.1c0.5-3.9,1.8-7.1,3.9-9.6c2.3-2.7,5.4-4.1,9.1-4.1
		c3.9,0,7,1.3,9.2,4c2.1,2.5,3.1,5.8,3.1,9.7H371.8z"/>
</g>
</svg>
