<?xml version="1.0" encoding="utf-8"?>
<!-- Generator: Adobe Illustrator 19.0.1, SVG Export Plug-In . SVG Version: 6.00 Build 0)  -->
<svg version="1.1" id="Layer_1" xmlns="http://www.w3.org/2000/svg" xmlns:xlink="http://www.w3.org/1999/xlink" x="0px" y="0px"
	 viewBox="0 0 512 512" style="enable-background:new 0 0 512 512;" xml:space="preserve">
<path d="M425.2,207.3l21.9-69.1c0,0-59.8-61-81.3-62.4c-21.5-1.3-108.3,41.1-108.3,45.1c0,1.5-1.1,1.5-0.7,11.7
	c14.1-11.7,38.5-22,62.5-25.4c37.7-5.4,79.4,24.2,85.6,32.3C411.2,147.6,425.2,207.3,425.2,207.3 M261.6,110.3
	c-0.7-2.1-1.5-3.7-2.4-4.6c-6.9-6.9-41.5-26.3-71.5-35.5l55.1,83.4c0.1-0.2-0.3-3.7-0.3-3.8c1.3-3.4,3.5-8.8,7.8-16.6
	c-0.5-10.7,2.1-16.4,2.1-18C252.3,114.3,254.3,112.7,261.6,110.3 M400.8,149.7c-6-7.7-45.7-35.9-81.5-30.7
	c-35.8,5.1-69.2,35.9-71.7,42.3c-0.7,1.7-1.7,2.3-2,9.4L129.8,0h-19.9l135,190.7c-0.4,16.9,7.7,54.7,7.7,54.7l15.7-5.9l4.2,17.8
	l-21.2,6.4l-26.1-11.3l-2.2-18l25.3,11c0,0-40.2-73.2-53.3-90.4l-19-51.6l-26.5-33.2l28.6,75.3c-20.8-12.8-58.5-33.7-71.2-34.7
	c-16.7-1.3-33.3,25.6-30.7,34.6c2.6,9,33.9,53.3,33.9,53.3l101.5,33.4l2.4,18L110,215.8l32,234L251.3,512l142.6-53.3L420,226
	l-131.9,27.1l-4.1-17.9l132.1-27.6C416.1,207.7,406.1,156.6,400.8,149.7 M143.1,71.6c-16.5,5.1-27.4,17.7-36.2,30.5
	c0.6,0,37.3,11,59,23.6L143.1,71.6z M239,193.9l-48.8-72.7l11.5,31c4,6.8,27.9,49.8,40.7,70C242.4,222.2,239,194.5,239,193.9"/>
</svg>
